<mxfile host="app.diagrams.net" agent="Mozilla/5.0 (Windows NT 10.0; Win64; x64) AppleWebKit/537.36 (KHTML, like Gecko) Chrome/130.0.0.0 Safari/537.36" version="24.8.0">
  <diagram id="R2lEEEUBdFMjLlhIrx00" name="Page-1">
    <mxGraphModel dx="2944" dy="2689" grid="1" gridSize="10" guides="1" tooltips="1" connect="1" arrows="1" fold="1" page="1" pageScale="1" pageWidth="850" pageHeight="1100" math="0" shadow="0" extFonts="Permanent Marker^https://fonts.googleapis.com/css?family=Permanent+Marker">
      <root>
        <mxCell id="0" />
        <mxCell id="1" parent="0" />
        <mxCell id="mFs4ngc85-u2YBcvQ6tv-143" value="" style="rounded=1;whiteSpace=wrap;html=1;" parent="1" vertex="1">
          <mxGeometry x="-260" y="1052.5" width="120" height="60" as="geometry" />
        </mxCell>
        <mxCell id="rj0RwfOlwYhKOknB0tcM-1" value="" style="rounded=1;whiteSpace=wrap;html=1;" parent="1" vertex="1">
          <mxGeometry x="-160" y="160" width="120" height="60" as="geometry" />
        </mxCell>
        <mxCell id="rj0RwfOlwYhKOknB0tcM-6" value="" style="endArrow=none;html=1;rounded=0;exitX=1;exitY=0.5;exitDx=0;exitDy=0;entryX=0;entryY=0.5;entryDx=0;entryDy=0;" parent="1" source="rj0RwfOlwYhKOknB0tcM-97" target="rj0RwfOlwYhKOknB0tcM-22" edge="1">
          <mxGeometry width="50" height="50" relative="1" as="geometry">
            <mxPoint x="520" y="340" as="sourcePoint" />
            <mxPoint x="570" y="290" as="targetPoint" />
          </mxGeometry>
        </mxCell>
        <mxCell id="rj0RwfOlwYhKOknB0tcM-7" value="" style="endArrow=none;html=1;rounded=0;exitX=0.39;exitY=0.06;exitDx=0;exitDy=0;entryX=0.5;entryY=1;entryDx=0;entryDy=0;exitPerimeter=0;" parent="1" source="rj0RwfOlwYhKOknB0tcM-107" target="rj0RwfOlwYhKOknB0tcM-15" edge="1">
          <mxGeometry width="50" height="50" relative="1" as="geometry">
            <mxPoint x="520" y="340" as="sourcePoint" />
            <mxPoint x="570" y="290" as="targetPoint" />
          </mxGeometry>
        </mxCell>
        <mxCell id="rj0RwfOlwYhKOknB0tcM-8" value="" style="endArrow=none;html=1;rounded=0;exitX=1;exitY=0.5;exitDx=0;exitDy=0;entryX=0;entryY=0.5;entryDx=0;entryDy=0;" parent="1" source="rj0RwfOlwYhKOknB0tcM-91" target="rj0RwfOlwYhKOknB0tcM-38" edge="1">
          <mxGeometry width="50" height="50" relative="1" as="geometry">
            <mxPoint x="250" y="1180" as="sourcePoint" />
            <mxPoint x="570" y="290" as="targetPoint" />
          </mxGeometry>
        </mxCell>
        <mxCell id="rj0RwfOlwYhKOknB0tcM-10" value="" style="endArrow=none;html=1;rounded=0;exitX=1;exitY=0.5;exitDx=0;exitDy=0;entryX=0;entryY=0.5;entryDx=0;entryDy=0;" parent="1" source="rj0RwfOlwYhKOknB0tcM-73" target="rj0RwfOlwYhKOknB0tcM-20" edge="1">
          <mxGeometry width="50" height="50" relative="1" as="geometry">
            <mxPoint x="520" y="340" as="sourcePoint" />
            <mxPoint x="570" y="290" as="targetPoint" />
          </mxGeometry>
        </mxCell>
        <mxCell id="rj0RwfOlwYhKOknB0tcM-11" value="" style="endArrow=none;html=1;rounded=0;entryX=1;entryY=0.5;entryDx=0;entryDy=0;exitX=0;exitY=0.5;exitDx=0;exitDy=0;" parent="1" source="rj0RwfOlwYhKOknB0tcM-71" target="rj0RwfOlwYhKOknB0tcM-28" edge="1">
          <mxGeometry width="50" height="50" relative="1" as="geometry">
            <mxPoint x="520" y="340" as="sourcePoint" />
            <mxPoint x="570" y="290" as="targetPoint" />
          </mxGeometry>
        </mxCell>
        <mxCell id="rj0RwfOlwYhKOknB0tcM-12" value="" style="endArrow=none;html=1;rounded=0;exitX=0;exitY=0.5;exitDx=0;exitDy=0;entryX=0.5;entryY=0;entryDx=0;entryDy=0;" parent="1" source="rj0RwfOlwYhKOknB0tcM-92" target="rj0RwfOlwYhKOknB0tcM-16" edge="1">
          <mxGeometry width="50" height="50" relative="1" as="geometry">
            <mxPoint x="520" y="340" as="sourcePoint" />
            <mxPoint x="570" y="290" as="targetPoint" />
          </mxGeometry>
        </mxCell>
        <mxCell id="rj0RwfOlwYhKOknB0tcM-13" value="" style="endArrow=none;html=1;rounded=0;exitX=0;exitY=0.5;exitDx=0;exitDy=0;entryX=0.5;entryY=1;entryDx=0;entryDy=0;" parent="1" source="rj0RwfOlwYhKOknB0tcM-72" target="rj0RwfOlwYhKOknB0tcM-26" edge="1">
          <mxGeometry width="50" height="50" relative="1" as="geometry">
            <mxPoint x="520" y="340" as="sourcePoint" />
            <mxPoint x="570" y="290" as="targetPoint" />
          </mxGeometry>
        </mxCell>
        <mxCell id="rj0RwfOlwYhKOknB0tcM-14" value="" style="endArrow=none;html=1;rounded=0;exitX=1;exitY=0.5;exitDx=0;exitDy=0;" parent="1" source="rj0RwfOlwYhKOknB0tcM-69" target="rj0RwfOlwYhKOknB0tcM-15" edge="1">
          <mxGeometry width="50" height="50" relative="1" as="geometry">
            <mxPoint x="320" y="220" as="sourcePoint" />
            <mxPoint x="340" y="190" as="targetPoint" />
          </mxGeometry>
        </mxCell>
        <mxCell id="rj0RwfOlwYhKOknB0tcM-15" value="" style="rounded=1;whiteSpace=wrap;html=1;" parent="1" vertex="1">
          <mxGeometry x="420" y="160" width="120" height="60" as="geometry" />
        </mxCell>
        <mxCell id="rj0RwfOlwYhKOknB0tcM-16" value="" style="rounded=1;whiteSpace=wrap;html=1;" parent="1" vertex="1">
          <mxGeometry x="-90" y="860" width="120" height="60" as="geometry" />
        </mxCell>
        <mxCell id="rj0RwfOlwYhKOknB0tcM-17" value="" style="rounded=1;whiteSpace=wrap;html=1;" parent="1" vertex="1">
          <mxGeometry x="420" y="1210" width="120" height="60" as="geometry" />
        </mxCell>
        <mxCell id="rj0RwfOlwYhKOknB0tcM-18" value="" style="rounded=1;whiteSpace=wrap;html=1;" parent="1" vertex="1">
          <mxGeometry x="1430" y="275" width="120" height="60" as="geometry" />
        </mxCell>
        <mxCell id="rj0RwfOlwYhKOknB0tcM-19" value="" style="rounded=1;whiteSpace=wrap;html=1;" parent="1" vertex="1">
          <mxGeometry x="740" y="320" width="120" height="60" as="geometry" />
        </mxCell>
        <mxCell id="rj0RwfOlwYhKOknB0tcM-20" value="" style="rounded=1;whiteSpace=wrap;html=1;" parent="1" vertex="1">
          <mxGeometry x="440" y="650" width="120" height="60" as="geometry" />
        </mxCell>
        <mxCell id="rj0RwfOlwYhKOknB0tcM-21" value="" style="rounded=1;whiteSpace=wrap;html=1;" parent="1" vertex="1">
          <mxGeometry x="1430" y="90" width="120" height="60" as="geometry" />
        </mxCell>
        <mxCell id="rj0RwfOlwYhKOknB0tcM-22" value="" style="rounded=1;whiteSpace=wrap;html=1;" parent="1" vertex="1">
          <mxGeometry x="-90" y="650" width="120" height="60" as="geometry" />
        </mxCell>
        <mxCell id="rj0RwfOlwYhKOknB0tcM-23" value="" style="rounded=1;whiteSpace=wrap;html=1;" parent="1" vertex="1">
          <mxGeometry x="1050" y="160" width="120" height="60" as="geometry" />
        </mxCell>
        <mxCell id="rj0RwfOlwYhKOknB0tcM-24" value="" style="rounded=1;whiteSpace=wrap;html=1;" parent="1" vertex="1">
          <mxGeometry x="1430" y="-80" width="120" height="60" as="geometry" />
        </mxCell>
        <mxCell id="rj0RwfOlwYhKOknB0tcM-25" value="" style="rounded=1;whiteSpace=wrap;html=1;" parent="1" vertex="1">
          <mxGeometry x="1440" y="500" width="120" height="60" as="geometry" />
        </mxCell>
        <mxCell id="rj0RwfOlwYhKOknB0tcM-26" value="" style="rounded=1;whiteSpace=wrap;html=1;" parent="1" vertex="1">
          <mxGeometry x="230" y="350" width="120" height="60" as="geometry" />
        </mxCell>
        <mxCell id="rj0RwfOlwYhKOknB0tcM-27" value="" style="rounded=1;whiteSpace=wrap;html=1;" parent="1" vertex="1">
          <mxGeometry x="1200" y="580" width="120" height="60" as="geometry" />
        </mxCell>
        <mxCell id="rj0RwfOlwYhKOknB0tcM-28" value="" style="rounded=1;whiteSpace=wrap;html=1;" parent="1" vertex="1">
          <mxGeometry x="-80" y="450" width="120" height="60" as="geometry" />
        </mxCell>
        <mxCell id="rj0RwfOlwYhKOknB0tcM-29" value="" style="endArrow=none;html=1;rounded=0;entryX=1;entryY=0.5;entryDx=0;entryDy=0;exitX=0;exitY=0.5;exitDx=0;exitDy=0;" parent="1" source="rj0RwfOlwYhKOknB0tcM-78" target="rj0RwfOlwYhKOknB0tcM-23" edge="1">
          <mxGeometry width="50" height="50" relative="1" as="geometry">
            <mxPoint x="410" y="330" as="sourcePoint" />
            <mxPoint x="460" y="280" as="targetPoint" />
          </mxGeometry>
        </mxCell>
        <mxCell id="rj0RwfOlwYhKOknB0tcM-30" value="" style="endArrow=none;html=1;rounded=0;entryX=1;entryY=0.5;entryDx=0;entryDy=0;exitX=0;exitY=0.5;exitDx=0;exitDy=0;" parent="1" source="rj0RwfOlwYhKOknB0tcM-77" target="rj0RwfOlwYhKOknB0tcM-23" edge="1">
          <mxGeometry width="50" height="50" relative="1" as="geometry">
            <mxPoint x="410" y="330" as="sourcePoint" />
            <mxPoint x="460" y="280" as="targetPoint" />
          </mxGeometry>
        </mxCell>
        <mxCell id="rj0RwfOlwYhKOknB0tcM-31" value="" style="endArrow=none;html=1;rounded=0;entryX=1;entryY=0.5;entryDx=0;entryDy=0;exitX=0;exitY=0.5;exitDx=0;exitDy=0;" parent="1" source="rj0RwfOlwYhKOknB0tcM-79" target="rj0RwfOlwYhKOknB0tcM-19" edge="1">
          <mxGeometry width="50" height="50" relative="1" as="geometry">
            <mxPoint x="410" y="330" as="sourcePoint" />
            <mxPoint x="460" y="280" as="targetPoint" />
          </mxGeometry>
        </mxCell>
        <mxCell id="rj0RwfOlwYhKOknB0tcM-32" value="" style="endArrow=none;html=1;rounded=0;exitX=1;exitY=0.5;exitDx=0;exitDy=0;entryX=0;entryY=0.5;entryDx=0;entryDy=0;" parent="1" source="rj0RwfOlwYhKOknB0tcM-15" target="rj0RwfOlwYhKOknB0tcM-19" edge="1">
          <mxGeometry width="50" height="50" relative="1" as="geometry">
            <mxPoint x="410" y="330" as="sourcePoint" />
            <mxPoint x="460" y="280" as="targetPoint" />
          </mxGeometry>
        </mxCell>
        <mxCell id="rj0RwfOlwYhKOknB0tcM-34" value="" style="endArrow=none;html=1;rounded=0;entryX=0.5;entryY=1;entryDx=0;entryDy=0;exitX=0.25;exitY=0;exitDx=0;exitDy=0;" parent="1" source="rj0RwfOlwYhKOknB0tcM-17" target="rj0RwfOlwYhKOknB0tcM-38" edge="1">
          <mxGeometry width="50" height="50" relative="1" as="geometry">
            <mxPoint x="1460" y="1265" as="sourcePoint" />
            <mxPoint x="1310" y="1080" as="targetPoint" />
          </mxGeometry>
        </mxCell>
        <mxCell id="rj0RwfOlwYhKOknB0tcM-35" value="" style="endArrow=none;html=1;rounded=0;entryX=0.5;entryY=1;entryDx=0;entryDy=0;exitX=0.37;exitY=-0.077;exitDx=0;exitDy=0;exitPerimeter=0;" parent="1" source="rj0RwfOlwYhKOknB0tcM-74" target="rj0RwfOlwYhKOknB0tcM-23" edge="1">
          <mxGeometry width="50" height="50" relative="1" as="geometry">
            <mxPoint x="880" y="330" as="sourcePoint" />
            <mxPoint x="930" y="280" as="targetPoint" />
          </mxGeometry>
        </mxCell>
        <mxCell id="rj0RwfOlwYhKOknB0tcM-36" value="" style="endArrow=none;html=1;rounded=0;entryX=1;entryY=0.5;entryDx=0;entryDy=0;exitX=0.5;exitY=0;exitDx=0;exitDy=0;" parent="1" source="rj0RwfOlwYhKOknB0tcM-75" target="rj0RwfOlwYhKOknB0tcM-23" edge="1">
          <mxGeometry width="50" height="50" relative="1" as="geometry">
            <mxPoint x="880" y="330" as="sourcePoint" />
            <mxPoint x="930" y="280" as="targetPoint" />
          </mxGeometry>
        </mxCell>
        <mxCell id="rj0RwfOlwYhKOknB0tcM-37" value="" style="endArrow=none;html=1;rounded=0;entryX=1;entryY=0.5;entryDx=0;entryDy=0;exitX=0;exitY=0.5;exitDx=0;exitDy=0;" parent="1" source="rj0RwfOlwYhKOknB0tcM-76" target="rj0RwfOlwYhKOknB0tcM-23" edge="1">
          <mxGeometry width="50" height="50" relative="1" as="geometry">
            <mxPoint x="880" y="330" as="sourcePoint" />
            <mxPoint x="930" y="280" as="targetPoint" />
          </mxGeometry>
        </mxCell>
        <mxCell id="rj0RwfOlwYhKOknB0tcM-38" value="" style="rounded=1;whiteSpace=wrap;html=1;" parent="1" vertex="1">
          <mxGeometry x="210" y="1010" width="120" height="60" as="geometry" />
        </mxCell>
        <mxCell id="rj0RwfOlwYhKOknB0tcM-41" value="" style="rounded=1;whiteSpace=wrap;html=1;" parent="1" vertex="1">
          <mxGeometry x="-460" y="550" width="120" height="60" as="geometry" />
        </mxCell>
        <mxCell id="rj0RwfOlwYhKOknB0tcM-42" value="" style="rounded=1;whiteSpace=wrap;html=1;" parent="1" vertex="1">
          <mxGeometry x="-530" y="850" width="120" height="60" as="geometry" />
        </mxCell>
        <mxCell id="rj0RwfOlwYhKOknB0tcM-43" value="" style="endArrow=none;html=1;rounded=0;entryX=0;entryY=0.5;entryDx=0;entryDy=0;exitX=1;exitY=0.5;exitDx=0;exitDy=0;" parent="1" source="rj0RwfOlwYhKOknB0tcM-90" target="rj0RwfOlwYhKOknB0tcM-22" edge="1">
          <mxGeometry width="50" height="50" relative="1" as="geometry">
            <mxPoint x="370" y="840" as="sourcePoint" />
            <mxPoint x="420" y="790" as="targetPoint" />
          </mxGeometry>
        </mxCell>
        <mxCell id="rj0RwfOlwYhKOknB0tcM-49" value="Vardiya" style="text;html=1;align=center;verticalAlign=middle;whiteSpace=wrap;rounded=0;" parent="1" vertex="1">
          <mxGeometry x="-500" y="870" width="60" height="30" as="geometry" />
        </mxCell>
        <mxCell id="rj0RwfOlwYhKOknB0tcM-51" value="Tedarikci" style="text;html=1;align=center;verticalAlign=middle;whiteSpace=wrap;rounded=0;" parent="1" vertex="1">
          <mxGeometry x="240" y="1025" width="60" height="30" as="geometry" />
        </mxCell>
        <mxCell id="rj0RwfOlwYhKOknB0tcM-52" value="Menu" style="text;html=1;align=center;verticalAlign=middle;whiteSpace=wrap;rounded=0;" parent="1" vertex="1">
          <mxGeometry x="-60" y="875" width="60" height="30" as="geometry" />
        </mxCell>
        <mxCell id="rj0RwfOlwYhKOknB0tcM-53" value="Çalışan" style="text;html=1;align=center;verticalAlign=middle;whiteSpace=wrap;rounded=0;" parent="1" vertex="1">
          <mxGeometry x="-60" y="665" width="60" height="30" as="geometry" />
        </mxCell>
        <mxCell id="rj0RwfOlwYhKOknB0tcM-55" value="Garson" style="text;html=1;align=center;verticalAlign=middle;whiteSpace=wrap;rounded=0;" parent="1" vertex="1">
          <mxGeometry x="-430" y="565" width="60" height="30" as="geometry" />
        </mxCell>
        <mxCell id="rj0RwfOlwYhKOknB0tcM-56" value="Masa" style="text;html=1;align=center;verticalAlign=middle;whiteSpace=wrap;rounded=0;" parent="1" vertex="1">
          <mxGeometry x="-50" y="465" width="60" height="30" as="geometry" />
        </mxCell>
        <mxCell id="rj0RwfOlwYhKOknB0tcM-57" value="Teslimat" style="text;html=1;align=center;verticalAlign=middle;whiteSpace=wrap;rounded=0;" parent="1" vertex="1">
          <mxGeometry x="260" y="365" width="60" height="30" as="geometry" />
        </mxCell>
        <mxCell id="rj0RwfOlwYhKOknB0tcM-58" value="stok" style="text;html=1;align=center;verticalAlign=middle;whiteSpace=wrap;rounded=0;" parent="1" vertex="1">
          <mxGeometry x="450" y="1225" width="60" height="30" as="geometry" />
        </mxCell>
        <mxCell id="rj0RwfOlwYhKOknB0tcM-59" value="Restaurant" style="text;html=1;align=center;verticalAlign=middle;whiteSpace=wrap;rounded=0;" parent="1" vertex="1">
          <mxGeometry x="470" y="665" width="60" height="30" as="geometry" />
        </mxCell>
        <mxCell id="rj0RwfOlwYhKOknB0tcM-60" value="Indirim" style="text;html=1;align=center;verticalAlign=middle;whiteSpace=wrap;rounded=0;" parent="1" vertex="1">
          <mxGeometry x="1460" y="-65" width="60" height="30" as="geometry" />
        </mxCell>
        <mxCell id="rj0RwfOlwYhKOknB0tcM-61" value="Geri Bildirim" style="text;html=1;align=center;verticalAlign=middle;whiteSpace=wrap;rounded=0;" parent="1" vertex="1">
          <mxGeometry x="1230" y="595" width="60" height="30" as="geometry" />
        </mxCell>
        <mxCell id="rj0RwfOlwYhKOknB0tcM-62" value="Sipariş" style="text;html=1;align=center;verticalAlign=middle;whiteSpace=wrap;rounded=0;" parent="1" vertex="1">
          <mxGeometry x="1470" y="515" width="60" height="30" as="geometry" />
        </mxCell>
        <mxCell id="rj0RwfOlwYhKOknB0tcM-63" value="Odeme" style="text;html=1;align=center;verticalAlign=middle;whiteSpace=wrap;rounded=0;" parent="1" vertex="1">
          <mxGeometry x="1460" y="290" width="60" height="30" as="geometry" />
        </mxCell>
        <mxCell id="rj0RwfOlwYhKOknB0tcM-64" value="Rezervasyon" style="text;html=1;align=center;verticalAlign=middle;whiteSpace=wrap;rounded=0;" parent="1" vertex="1">
          <mxGeometry x="1460" y="105" width="60" height="30" as="geometry" />
        </mxCell>
        <mxCell id="rj0RwfOlwYhKOknB0tcM-65" value="Users" style="text;html=1;align=center;verticalAlign=middle;whiteSpace=wrap;rounded=0;" parent="1" vertex="1">
          <mxGeometry x="1080" y="180" width="60" height="25" as="geometry" />
        </mxCell>
        <mxCell id="rj0RwfOlwYhKOknB0tcM-66" value="İletişim" style="text;html=1;align=center;verticalAlign=middle;whiteSpace=wrap;rounded=0;" parent="1" vertex="1">
          <mxGeometry x="770" y="335" width="60" height="30" as="geometry" />
        </mxCell>
        <mxCell id="rj0RwfOlwYhKOknB0tcM-67" value="Admin" style="text;html=1;align=center;verticalAlign=middle;whiteSpace=wrap;rounded=0;" parent="1" vertex="1">
          <mxGeometry x="450" y="175" width="60" height="30" as="geometry" />
        </mxCell>
        <mxCell id="rj0RwfOlwYhKOknB0tcM-68" value="SuperAdmin" style="text;html=1;align=center;verticalAlign=middle;whiteSpace=wrap;rounded=0;" parent="1" vertex="1">
          <mxGeometry x="-130" y="175" width="60" height="35" as="geometry" />
        </mxCell>
        <mxCell id="rj0RwfOlwYhKOknB0tcM-70" value="" style="endArrow=none;html=1;rounded=0;exitX=1;exitY=0.5;exitDx=0;exitDy=0;" parent="1" source="rj0RwfOlwYhKOknB0tcM-1" target="rj0RwfOlwYhKOknB0tcM-69" edge="1">
          <mxGeometry width="50" height="50" relative="1" as="geometry">
            <mxPoint x="-40" y="190" as="sourcePoint" />
            <mxPoint x="420" y="190" as="targetPoint" />
          </mxGeometry>
        </mxCell>
        <mxCell id="rj0RwfOlwYhKOknB0tcM-69" value="" style="rhombus;whiteSpace=wrap;html=1;" parent="1" vertex="1">
          <mxGeometry x="130" y="150" width="80" height="80" as="geometry" />
        </mxCell>
        <mxCell id="rj0RwfOlwYhKOknB0tcM-80" value="" style="endArrow=none;html=1;rounded=0;entryX=1;entryY=0.5;entryDx=0;entryDy=0;exitX=0;exitY=0.5;exitDx=0;exitDy=0;" parent="1" source="rj0RwfOlwYhKOknB0tcM-23" target="rj0RwfOlwYhKOknB0tcM-79" edge="1">
          <mxGeometry width="50" height="50" relative="1" as="geometry">
            <mxPoint x="1050" y="190" as="sourcePoint" />
            <mxPoint x="860" y="350" as="targetPoint" />
          </mxGeometry>
        </mxCell>
        <mxCell id="rj0RwfOlwYhKOknB0tcM-79" value="kurar" style="rhombus;whiteSpace=wrap;html=1;" parent="1" vertex="1">
          <mxGeometry x="910" y="230" width="80" height="80" as="geometry" />
        </mxCell>
        <mxCell id="rj0RwfOlwYhKOknB0tcM-81" value="" style="endArrow=none;html=1;rounded=0;entryX=1;entryY=0.5;entryDx=0;entryDy=0;exitX=0;exitY=0.5;exitDx=0;exitDy=0;" parent="1" source="rj0RwfOlwYhKOknB0tcM-24" target="rj0RwfOlwYhKOknB0tcM-78" edge="1">
          <mxGeometry width="50" height="50" relative="1" as="geometry">
            <mxPoint x="1430" y="-50" as="sourcePoint" />
            <mxPoint x="1170" y="190" as="targetPoint" />
          </mxGeometry>
        </mxCell>
        <mxCell id="rj0RwfOlwYhKOknB0tcM-78" value="faydalanır" style="rhombus;whiteSpace=wrap;html=1;" parent="1" vertex="1">
          <mxGeometry x="1290" width="80" height="80" as="geometry" />
        </mxCell>
        <mxCell id="rj0RwfOlwYhKOknB0tcM-82" value="" style="endArrow=none;html=1;rounded=0;entryX=1;entryY=0.5;entryDx=0;entryDy=0;exitX=0;exitY=0.5;exitDx=0;exitDy=0;" parent="1" source="rj0RwfOlwYhKOknB0tcM-21" target="rj0RwfOlwYhKOknB0tcM-77" edge="1">
          <mxGeometry width="50" height="50" relative="1" as="geometry">
            <mxPoint x="1430" y="120" as="sourcePoint" />
            <mxPoint x="1170" y="190" as="targetPoint" />
          </mxGeometry>
        </mxCell>
        <mxCell id="rj0RwfOlwYhKOknB0tcM-77" value="yapar" style="rhombus;whiteSpace=wrap;html=1;" parent="1" vertex="1">
          <mxGeometry x="1300" y="105" width="80" height="80" as="geometry" />
        </mxCell>
        <mxCell id="rj0RwfOlwYhKOknB0tcM-83" value="" style="endArrow=none;html=1;rounded=0;entryX=1;entryY=0.5;entryDx=0;entryDy=0;exitX=0;exitY=0.5;exitDx=0;exitDy=0;" parent="1" source="rj0RwfOlwYhKOknB0tcM-18" target="rj0RwfOlwYhKOknB0tcM-76" edge="1">
          <mxGeometry width="50" height="50" relative="1" as="geometry">
            <mxPoint x="1430" y="305" as="sourcePoint" />
            <mxPoint x="1170" y="190" as="targetPoint" />
          </mxGeometry>
        </mxCell>
        <mxCell id="rj0RwfOlwYhKOknB0tcM-76" value="yapar" style="rhombus;whiteSpace=wrap;html=1;" parent="1" vertex="1">
          <mxGeometry x="1300" y="230" width="80" height="80" as="geometry" />
        </mxCell>
        <mxCell id="rj0RwfOlwYhKOknB0tcM-84" value="" style="endArrow=none;html=1;rounded=0;entryX=1;entryY=0.5;entryDx=0;entryDy=0;exitX=0.5;exitY=0;exitDx=0;exitDy=0;" parent="1" source="rj0RwfOlwYhKOknB0tcM-25" target="rj0RwfOlwYhKOknB0tcM-75" edge="1">
          <mxGeometry width="50" height="50" relative="1" as="geometry">
            <mxPoint x="1500" y="500" as="sourcePoint" />
            <mxPoint x="1170" y="190" as="targetPoint" />
          </mxGeometry>
        </mxCell>
        <mxCell id="rj0RwfOlwYhKOknB0tcM-75" value="verir" style="rhombus;whiteSpace=wrap;html=1;" parent="1" vertex="1">
          <mxGeometry x="1260" y="420" width="80" height="80" as="geometry" />
        </mxCell>
        <mxCell id="rj0RwfOlwYhKOknB0tcM-85" value="" style="endArrow=none;html=1;rounded=0;entryX=0.5;entryY=1;entryDx=0;entryDy=0;exitX=0.37;exitY=-0.077;exitDx=0;exitDy=0;exitPerimeter=0;" parent="1" source="rj0RwfOlwYhKOknB0tcM-27" target="rj0RwfOlwYhKOknB0tcM-74" edge="1">
          <mxGeometry width="50" height="50" relative="1" as="geometry">
            <mxPoint x="1244" y="575" as="sourcePoint" />
            <mxPoint x="1110" y="220" as="targetPoint" />
          </mxGeometry>
        </mxCell>
        <mxCell id="rj0RwfOlwYhKOknB0tcM-74" value="verir" style="rhombus;whiteSpace=wrap;html=1;" parent="1" vertex="1">
          <mxGeometry x="1140" y="350" width="80" height="80" as="geometry" />
        </mxCell>
        <mxCell id="rj0RwfOlwYhKOknB0tcM-86" value="" style="endArrow=none;html=1;rounded=0;exitX=1;exitY=0.5;exitDx=0;exitDy=0;entryX=0;entryY=0.5;entryDx=0;entryDy=0;" parent="1" source="rj0RwfOlwYhKOknB0tcM-22" target="rj0RwfOlwYhKOknB0tcM-73" edge="1">
          <mxGeometry width="50" height="50" relative="1" as="geometry">
            <mxPoint x="30" y="680" as="sourcePoint" />
            <mxPoint x="440" y="680" as="targetPoint" />
          </mxGeometry>
        </mxCell>
        <mxCell id="rj0RwfOlwYhKOknB0tcM-73" value="" style="rhombus;whiteSpace=wrap;html=1;" parent="1" vertex="1">
          <mxGeometry x="150" y="630" width="80" height="80" as="geometry" />
        </mxCell>
        <mxCell id="rj0RwfOlwYhKOknB0tcM-87" value="" style="endArrow=none;html=1;rounded=0;exitX=0;exitY=0.5;exitDx=0;exitDy=0;entryX=0.5;entryY=1;entryDx=0;entryDy=0;" parent="1" source="rj0RwfOlwYhKOknB0tcM-20" target="rj0RwfOlwYhKOknB0tcM-72" edge="1">
          <mxGeometry width="50" height="50" relative="1" as="geometry">
            <mxPoint x="440" y="680" as="sourcePoint" />
            <mxPoint x="290" y="410" as="targetPoint" />
          </mxGeometry>
        </mxCell>
        <mxCell id="rj0RwfOlwYhKOknB0tcM-72" value="" style="rhombus;whiteSpace=wrap;html=1;" parent="1" vertex="1">
          <mxGeometry x="340" y="470" width="80" height="80" as="geometry" />
        </mxCell>
        <mxCell id="rj0RwfOlwYhKOknB0tcM-88" value="" style="endArrow=none;html=1;rounded=0;entryX=1;entryY=0.5;entryDx=0;entryDy=0;exitX=0;exitY=0.5;exitDx=0;exitDy=0;" parent="1" source="rj0RwfOlwYhKOknB0tcM-20" target="rj0RwfOlwYhKOknB0tcM-71" edge="1">
          <mxGeometry width="50" height="50" relative="1" as="geometry">
            <mxPoint x="440" y="680" as="sourcePoint" />
            <mxPoint x="40" y="480" as="targetPoint" />
          </mxGeometry>
        </mxCell>
        <mxCell id="rj0RwfOlwYhKOknB0tcM-71" value="" style="rhombus;whiteSpace=wrap;html=1;" parent="1" vertex="1">
          <mxGeometry x="120" y="510" width="80" height="80" as="geometry" />
        </mxCell>
        <mxCell id="rj0RwfOlwYhKOknB0tcM-93" value="" style="endArrow=none;html=1;rounded=0;exitX=0;exitY=0.5;exitDx=0;exitDy=0;entryX=0.5;entryY=0;entryDx=0;entryDy=0;" parent="1" source="rj0RwfOlwYhKOknB0tcM-20" target="rj0RwfOlwYhKOknB0tcM-92" edge="1">
          <mxGeometry width="50" height="50" relative="1" as="geometry">
            <mxPoint x="440" y="680" as="sourcePoint" />
            <mxPoint x="-30" y="860" as="targetPoint" />
          </mxGeometry>
        </mxCell>
        <mxCell id="rj0RwfOlwYhKOknB0tcM-92" value="" style="rhombus;whiteSpace=wrap;html=1;" parent="1" vertex="1">
          <mxGeometry x="130" y="750" width="80" height="80" as="geometry" />
        </mxCell>
        <mxCell id="rj0RwfOlwYhKOknB0tcM-94" value="" style="endArrow=none;html=1;rounded=0;exitX=0.418;exitY=1.024;exitDx=0;exitDy=0;entryX=0;entryY=0.5;entryDx=0;entryDy=0;exitPerimeter=0;" parent="1" source="rj0RwfOlwYhKOknB0tcM-20" target="rj0RwfOlwYhKOknB0tcM-91" edge="1">
          <mxGeometry width="50" height="50" relative="1" as="geometry">
            <mxPoint x="30" y="1150" as="sourcePoint" />
            <mxPoint x="210" y="1040" as="targetPoint" />
          </mxGeometry>
        </mxCell>
        <mxCell id="rj0RwfOlwYhKOknB0tcM-91" value="Ürün Tedarik eder" style="rhombus;whiteSpace=wrap;html=1;" parent="1" vertex="1">
          <mxGeometry x="410" y="810" width="80" height="80" as="geometry" />
        </mxCell>
        <mxCell id="rj0RwfOlwYhKOknB0tcM-95" value="" style="endArrow=none;html=1;rounded=0;entryX=0;entryY=0.5;entryDx=0;entryDy=0;exitX=1;exitY=0.5;exitDx=0;exitDy=0;" parent="1" source="rj0RwfOlwYhKOknB0tcM-42" target="rj0RwfOlwYhKOknB0tcM-90" edge="1">
          <mxGeometry width="50" height="50" relative="1" as="geometry">
            <mxPoint x="-350" y="1080" as="sourcePoint" />
            <mxPoint x="-90" y="680" as="targetPoint" />
          </mxGeometry>
        </mxCell>
        <mxCell id="rj0RwfOlwYhKOknB0tcM-90" value="" style="rhombus;whiteSpace=wrap;html=1;" parent="1" vertex="1">
          <mxGeometry x="-270" y="770" width="80" height="80" as="geometry" />
        </mxCell>
        <mxCell id="rj0RwfOlwYhKOknB0tcM-98" value="" style="endArrow=none;html=1;rounded=0;exitX=1;exitY=0.5;exitDx=0;exitDy=0;entryX=0;entryY=0.5;entryDx=0;entryDy=0;" parent="1" source="rj0RwfOlwYhKOknB0tcM-41" target="rj0RwfOlwYhKOknB0tcM-97" edge="1">
          <mxGeometry width="50" height="50" relative="1" as="geometry">
            <mxPoint x="-340" y="580" as="sourcePoint" />
            <mxPoint x="-90" y="680" as="targetPoint" />
          </mxGeometry>
        </mxCell>
        <mxCell id="rj0RwfOlwYhKOknB0tcM-97" value="" style="rhombus;whiteSpace=wrap;html=1;" parent="1" vertex="1">
          <mxGeometry x="-280" y="580" width="80" height="80" as="geometry" />
        </mxCell>
        <mxCell id="rj0RwfOlwYhKOknB0tcM-99" value="yönetir" style="text;html=1;align=center;verticalAlign=middle;whiteSpace=wrap;rounded=0;" parent="1" vertex="1">
          <mxGeometry x="140" y="175" width="60" height="30" as="geometry" />
        </mxCell>
        <mxCell id="rj0RwfOlwYhKOknB0tcM-100" value="eder" style="text;html=1;align=center;verticalAlign=middle;whiteSpace=wrap;rounded=0;" parent="1" vertex="1">
          <mxGeometry x="350" y="480" width="60" height="40" as="geometry" />
        </mxCell>
        <mxCell id="rj0RwfOlwYhKOknB0tcM-101" value="bulunur" style="text;html=1;align=center;verticalAlign=middle;whiteSpace=wrap;rounded=0;" parent="1" vertex="1">
          <mxGeometry x="130" y="535" width="60" height="30" as="geometry" />
        </mxCell>
        <mxCell id="rj0RwfOlwYhKOknB0tcM-102" value="çalışır" style="text;html=1;align=center;verticalAlign=middle;whiteSpace=wrap;rounded=0;" parent="1" vertex="1">
          <mxGeometry x="160" y="660" width="60" height="30" as="geometry" />
        </mxCell>
        <mxCell id="rj0RwfOlwYhKOknB0tcM-103" value="bulunur" style="text;html=1;align=center;verticalAlign=middle;whiteSpace=wrap;rounded=0;" parent="1" vertex="1">
          <mxGeometry x="140" y="770" width="60" height="30" as="geometry" />
        </mxCell>
        <mxCell id="rj0RwfOlwYhKOknB0tcM-104" value="çalıştırır" style="text;html=1;align=center;verticalAlign=middle;whiteSpace=wrap;rounded=0;" parent="1" vertex="1">
          <mxGeometry x="-270" y="600" width="60" height="30" as="geometry" />
        </mxCell>
        <mxCell id="rj0RwfOlwYhKOknB0tcM-106" value="saatleri" style="text;html=1;align=center;verticalAlign=middle;whiteSpace=wrap;rounded=0;" parent="1" vertex="1">
          <mxGeometry x="-260" y="795" width="60" height="30" as="geometry" />
        </mxCell>
        <mxCell id="rj0RwfOlwYhKOknB0tcM-108" value="" style="endArrow=none;html=1;rounded=0;exitX=0.39;exitY=0.06;exitDx=0;exitDy=0;entryX=0.5;entryY=1;entryDx=0;entryDy=0;exitPerimeter=0;" parent="1" source="rj0RwfOlwYhKOknB0tcM-20" target="rj0RwfOlwYhKOknB0tcM-107" edge="1">
          <mxGeometry width="50" height="50" relative="1" as="geometry">
            <mxPoint x="487" y="654" as="sourcePoint" />
            <mxPoint x="480" y="220" as="targetPoint" />
          </mxGeometry>
        </mxCell>
        <mxCell id="rj0RwfOlwYhKOknB0tcM-107" value="işletir" style="rhombus;whiteSpace=wrap;html=1;" parent="1" vertex="1">
          <mxGeometry x="450" y="370" width="80" height="80" as="geometry" />
        </mxCell>
        <mxCell id="rj0RwfOlwYhKOknB0tcM-149" value="&lt;span style=&quot;border-bottom: 1px dotted&quot;&gt;id (PK)&lt;/span&gt;" style="ellipse;whiteSpace=wrap;html=1;align=center;" parent="1" vertex="1">
          <mxGeometry x="-270" y="255" width="100" height="40" as="geometry" />
        </mxCell>
        <mxCell id="rj0RwfOlwYhKOknB0tcM-151" value="" style="endArrow=none;html=1;rounded=0;entryX=0;entryY=0.5;entryDx=0;entryDy=0;" parent="1" target="rj0RwfOlwYhKOknB0tcM-41" edge="1">
          <mxGeometry width="50" height="50" relative="1" as="geometry">
            <mxPoint x="-621.534904388674" y="673.5574292431475" as="sourcePoint" />
            <mxPoint x="340" y="240" as="targetPoint" />
          </mxGeometry>
        </mxCell>
        <mxCell id="rj0RwfOlwYhKOknB0tcM-152" value="" style="endArrow=none;html=1;rounded=0;exitX=0.709;exitY=0.022;exitDx=0;exitDy=0;exitPerimeter=0;entryX=0;entryY=0.25;entryDx=0;entryDy=0;" parent="1" source="rj0RwfOlwYhKOknB0tcM-187" target="rj0RwfOlwYhKOknB0tcM-41" edge="1">
          <mxGeometry width="50" height="50" relative="1" as="geometry">
            <mxPoint x="290" y="290" as="sourcePoint" />
            <mxPoint x="340" y="240" as="targetPoint" />
          </mxGeometry>
        </mxCell>
        <mxCell id="rj0RwfOlwYhKOknB0tcM-153" value="" style="endArrow=none;html=1;rounded=0;exitX=0.5;exitY=0;exitDx=0;exitDy=0;entryX=0;entryY=1;entryDx=0;entryDy=0;" parent="1" source="rj0RwfOlwYhKOknB0tcM-22" edge="1">
          <mxGeometry width="50" height="50" relative="1" as="geometry">
            <mxPoint x="290" y="290" as="sourcePoint" />
            <mxPoint x="44.799386687088145" y="614.20375624907" as="targetPoint" />
          </mxGeometry>
        </mxCell>
        <mxCell id="rj0RwfOlwYhKOknB0tcM-154" value="" style="endArrow=none;html=1;rounded=0;exitX=0.5;exitY=1;exitDx=0;exitDy=0;entryX=0.418;entryY=0.033;entryDx=0;entryDy=0;entryPerimeter=0;" parent="1" source="rj0RwfOlwYhKOknB0tcM-185" target="rj0RwfOlwYhKOknB0tcM-22" edge="1">
          <mxGeometry width="50" height="50" relative="1" as="geometry">
            <mxPoint x="290" y="290" as="sourcePoint" />
            <mxPoint x="340" y="240" as="targetPoint" />
          </mxGeometry>
        </mxCell>
        <mxCell id="rj0RwfOlwYhKOknB0tcM-155" value="" style="endArrow=none;html=1;rounded=0;exitX=1;exitY=0.5;exitDx=0;exitDy=0;entryX=0;entryY=0.5;entryDx=0;entryDy=0;" parent="1" source="rj0RwfOlwYhKOknB0tcM-186" target="rj0RwfOlwYhKOknB0tcM-28" edge="1">
          <mxGeometry width="50" height="50" relative="1" as="geometry">
            <mxPoint x="290" y="290" as="sourcePoint" />
            <mxPoint x="340" y="240" as="targetPoint" />
          </mxGeometry>
        </mxCell>
        <mxCell id="rj0RwfOlwYhKOknB0tcM-156" value="" style="endArrow=none;html=1;rounded=0;exitX=0.5;exitY=1;exitDx=0;exitDy=0;entryX=0.5;entryY=0;entryDx=0;entryDy=0;" parent="1" source="mFs4ngc85-u2YBcvQ6tv-126" target="rj0RwfOlwYhKOknB0tcM-26" edge="1">
          <mxGeometry width="50" height="50" relative="1" as="geometry">
            <mxPoint x="290" y="290" as="sourcePoint" />
            <mxPoint x="340" y="240" as="targetPoint" />
          </mxGeometry>
        </mxCell>
        <mxCell id="rj0RwfOlwYhKOknB0tcM-157" value="" style="endArrow=none;html=1;rounded=0;exitX=1;exitY=0.25;exitDx=0;exitDy=0;entryX=0;entryY=0.5;entryDx=0;entryDy=0;" parent="1" source="rj0RwfOlwYhKOknB0tcM-38" edge="1">
          <mxGeometry width="50" height="50" relative="1" as="geometry">
            <mxPoint x="290" y="290" as="sourcePoint" />
            <mxPoint x="600" y="1080" as="targetPoint" />
          </mxGeometry>
        </mxCell>
        <mxCell id="rj0RwfOlwYhKOknB0tcM-158" value="" style="endArrow=none;html=1;rounded=0;entryX=1;entryY=0.25;entryDx=0;entryDy=0;exitX=0;exitY=0.5;exitDx=0;exitDy=0;" parent="1" source="rj0RwfOlwYhKOknB0tcM-191" target="rj0RwfOlwYhKOknB0tcM-38" edge="1">
          <mxGeometry width="50" height="50" relative="1" as="geometry">
            <mxPoint x="290" y="290" as="sourcePoint" />
            <mxPoint x="340" y="240" as="targetPoint" />
          </mxGeometry>
        </mxCell>
        <mxCell id="rj0RwfOlwYhKOknB0tcM-159" value="" style="endArrow=none;html=1;rounded=0;exitX=0.5;exitY=1;exitDx=0;exitDy=0;entryX=0.5;entryY=0;entryDx=0;entryDy=0;" parent="1" source="rj0RwfOlwYhKOknB0tcM-17" target="rj0RwfOlwYhKOknB0tcM-180" edge="1">
          <mxGeometry width="50" height="50" relative="1" as="geometry">
            <mxPoint x="290" y="290" as="sourcePoint" />
            <mxPoint x="340" y="240" as="targetPoint" />
          </mxGeometry>
        </mxCell>
        <mxCell id="rj0RwfOlwYhKOknB0tcM-161" value="" style="endArrow=none;html=1;rounded=0;exitX=0.5;exitY=0;exitDx=0;exitDy=0;entryX=0.5;entryY=1;entryDx=0;entryDy=0;" parent="1" source="rj0RwfOlwYhKOknB0tcM-149" target="rj0RwfOlwYhKOknB0tcM-1" edge="1">
          <mxGeometry width="50" height="50" relative="1" as="geometry">
            <mxPoint x="290" y="290" as="sourcePoint" />
            <mxPoint x="340" y="240" as="targetPoint" />
          </mxGeometry>
        </mxCell>
        <mxCell id="rj0RwfOlwYhKOknB0tcM-176" value="id (PK)" style="ellipse;whiteSpace=wrap;html=1;align=center;fontStyle=4;" parent="1" vertex="1">
          <mxGeometry x="830" y="25" width="100" height="40" as="geometry" />
        </mxCell>
        <mxCell id="rj0RwfOlwYhKOknB0tcM-177" value="id (PK)" style="ellipse;whiteSpace=wrap;html=1;align=center;fontStyle=4;" parent="1" vertex="1">
          <mxGeometry x="1060" y="745" width="100" height="40" as="geometry" />
        </mxCell>
        <mxCell id="rj0RwfOlwYhKOknB0tcM-178" value="id (PK)" style="ellipse;whiteSpace=wrap;html=1;align=center;fontStyle=4;" parent="1" vertex="1">
          <mxGeometry x="325" y="65" width="100" height="40" as="geometry" />
        </mxCell>
        <mxCell id="rj0RwfOlwYhKOknB0tcM-180" value="id (PK)" style="ellipse;whiteSpace=wrap;html=1;align=center;fontStyle=4;" parent="1" vertex="1">
          <mxGeometry x="280" y="1360" width="100" height="40" as="geometry" />
        </mxCell>
        <mxCell id="rj0RwfOlwYhKOknB0tcM-181" value="id (PK)" style="ellipse;whiteSpace=wrap;html=1;align=center;fontStyle=4;" parent="1" vertex="1">
          <mxGeometry x="1620" y="455" width="100" height="40" as="geometry" />
        </mxCell>
        <mxCell id="rj0RwfOlwYhKOknB0tcM-182" value="id (PK)" style="ellipse;whiteSpace=wrap;html=1;align=center;fontStyle=4;" parent="1" vertex="1">
          <mxGeometry x="1580" y="395" width="100" height="40" as="geometry" />
        </mxCell>
        <mxCell id="rj0RwfOlwYhKOknB0tcM-183" value="id (PK)" style="ellipse;whiteSpace=wrap;html=1;align=center;fontStyle=4;" parent="1" vertex="1">
          <mxGeometry x="1670" y="40" width="100" height="40" as="geometry" />
        </mxCell>
        <mxCell id="rj0RwfOlwYhKOknB0tcM-184" value="id (PK)" style="ellipse;whiteSpace=wrap;html=1;align=center;fontStyle=4;" parent="1" vertex="1">
          <mxGeometry x="1550" y="-210" width="100" height="40" as="geometry" />
        </mxCell>
        <mxCell id="rj0RwfOlwYhKOknB0tcM-185" value="id (PK)" style="ellipse;whiteSpace=wrap;html=1;align=center;fontStyle=4;" parent="1" vertex="1">
          <mxGeometry x="-90" y="570" width="100" height="40" as="geometry" />
        </mxCell>
        <mxCell id="rj0RwfOlwYhKOknB0tcM-186" value="id (PK)" style="ellipse;whiteSpace=wrap;html=1;align=center;fontStyle=4;" parent="1" vertex="1">
          <mxGeometry x="-230" y="460" width="100" height="40" as="geometry" />
        </mxCell>
        <mxCell id="rj0RwfOlwYhKOknB0tcM-187" value="id (PK)" style="ellipse;whiteSpace=wrap;html=1;align=center;fontStyle=4;" parent="1" vertex="1">
          <mxGeometry x="-690" y="585" width="100" height="40" as="geometry" />
        </mxCell>
        <mxCell id="rj0RwfOlwYhKOknB0tcM-189" value="id (PK)" style="ellipse;whiteSpace=wrap;html=1;align=center;fontStyle=4;" parent="1" vertex="1">
          <mxGeometry x="-790" y="1010" width="100" height="40" as="geometry" />
        </mxCell>
        <mxCell id="rj0RwfOlwYhKOknB0tcM-191" value="id (PK)" style="ellipse;whiteSpace=wrap;html=1;align=center;fontStyle=4;" parent="1" vertex="1">
          <mxGeometry x="480" y="1015" width="100" height="40" as="geometry" />
        </mxCell>
        <mxCell id="rj0RwfOlwYhKOknB0tcM-195" value="id (PK)" style="ellipse;whiteSpace=wrap;html=1;align=center;fontStyle=4;" parent="1" vertex="1">
          <mxGeometry x="-250" y="940" width="100" height="40" as="geometry" />
        </mxCell>
        <mxCell id="rj0RwfOlwYhKOknB0tcM-201" value="" style="endArrow=none;html=1;rounded=0;exitX=0.5;exitY=0;exitDx=0;exitDy=0;entryX=0.5;entryY=1;entryDx=0;entryDy=0;" parent="1" source="rj0RwfOlwYhKOknB0tcM-24" target="rj0RwfOlwYhKOknB0tcM-184" edge="1">
          <mxGeometry width="50" height="50" relative="1" as="geometry">
            <mxPoint x="680" y="440" as="sourcePoint" />
            <mxPoint x="730" y="390" as="targetPoint" />
          </mxGeometry>
        </mxCell>
        <mxCell id="rj0RwfOlwYhKOknB0tcM-202" value="" style="endArrow=none;html=1;rounded=0;exitX=0.311;exitY=0.957;exitDx=0;exitDy=0;entryX=0.5;entryY=0;entryDx=0;entryDy=0;exitPerimeter=0;" parent="1" source="mFs4ngc85-u2YBcvQ6tv-96" target="rj0RwfOlwYhKOknB0tcM-23" edge="1">
          <mxGeometry width="50" height="50" relative="1" as="geometry">
            <mxPoint x="1230" y="64.99999999999977" as="sourcePoint" />
            <mxPoint x="730" y="390" as="targetPoint" />
          </mxGeometry>
        </mxCell>
        <mxCell id="rj0RwfOlwYhKOknB0tcM-203" value="" style="endArrow=none;html=1;rounded=0;exitX=0.5;exitY=1;exitDx=0;exitDy=0;entryX=0.5;entryY=0;entryDx=0;entryDy=0;" parent="1" target="rj0RwfOlwYhKOknB0tcM-23" edge="1">
          <mxGeometry width="50" height="50" relative="1" as="geometry">
            <mxPoint x="1120" y="64.99999999999977" as="sourcePoint" />
            <mxPoint x="730" y="390" as="targetPoint" />
          </mxGeometry>
        </mxCell>
        <mxCell id="rj0RwfOlwYhKOknB0tcM-204" value="" style="endArrow=none;html=1;rounded=0;exitX=0.5;exitY=1;exitDx=0;exitDy=0;entryX=0.25;entryY=0;entryDx=0;entryDy=0;" parent="1" target="rj0RwfOlwYhKOknB0tcM-23" edge="1">
          <mxGeometry width="50" height="50" relative="1" as="geometry">
            <mxPoint x="1010" y="64.99999999999977" as="sourcePoint" />
            <mxPoint x="730" y="390" as="targetPoint" />
          </mxGeometry>
        </mxCell>
        <mxCell id="rj0RwfOlwYhKOknB0tcM-205" value="" style="endArrow=none;html=1;rounded=0;exitX=0.5;exitY=1;exitDx=0;exitDy=0;entryX=0.25;entryY=0;entryDx=0;entryDy=0;" parent="1" source="rj0RwfOlwYhKOknB0tcM-176" target="rj0RwfOlwYhKOknB0tcM-23" edge="1">
          <mxGeometry width="50" height="50" relative="1" as="geometry">
            <mxPoint x="680" y="440" as="sourcePoint" />
            <mxPoint x="730" y="390" as="targetPoint" />
          </mxGeometry>
        </mxCell>
        <mxCell id="rj0RwfOlwYhKOknB0tcM-206" value="" style="endArrow=none;html=1;rounded=0;exitX=0;exitY=1;exitDx=0;exitDy=0;entryX=1;entryY=0.5;entryDx=0;entryDy=0;" parent="1" target="rj0RwfOlwYhKOknB0tcM-24" edge="1">
          <mxGeometry width="50" height="50" relative="1" as="geometry">
            <mxPoint x="1604.919787350249" y="-85.74866361103932" as="sourcePoint" />
            <mxPoint x="740" y="400" as="targetPoint" />
          </mxGeometry>
        </mxCell>
        <mxCell id="rj0RwfOlwYhKOknB0tcM-207" value="" style="endArrow=none;html=1;rounded=0;exitX=0;exitY=0.5;exitDx=0;exitDy=0;entryX=1;entryY=0.5;entryDx=0;entryDy=0;" parent="1" target="rj0RwfOlwYhKOknB0tcM-24" edge="1">
          <mxGeometry width="50" height="50" relative="1" as="geometry">
            <mxPoint x="1590" as="sourcePoint" />
            <mxPoint x="750" y="410" as="targetPoint" />
          </mxGeometry>
        </mxCell>
        <mxCell id="rj0RwfOlwYhKOknB0tcM-208" value="" style="endArrow=none;html=1;rounded=0;exitX=1;exitY=0.5;exitDx=0;exitDy=0;entryX=0;entryY=1;entryDx=0;entryDy=0;" parent="1" source="rj0RwfOlwYhKOknB0tcM-21" target="rj0RwfOlwYhKOknB0tcM-183" edge="1">
          <mxGeometry width="50" height="50" relative="1" as="geometry">
            <mxPoint x="710" y="470" as="sourcePoint" />
            <mxPoint x="760" y="420" as="targetPoint" />
          </mxGeometry>
        </mxCell>
        <mxCell id="rj0RwfOlwYhKOknB0tcM-209" value="" style="endArrow=none;html=1;rounded=0;exitX=1;exitY=0.5;exitDx=0;exitDy=0;entryX=0;entryY=0.5;entryDx=0;entryDy=0;" parent="1" source="rj0RwfOlwYhKOknB0tcM-21" edge="1">
          <mxGeometry width="50" height="50" relative="1" as="geometry">
            <mxPoint x="720" y="480" as="sourcePoint" />
            <mxPoint x="1690" y="140" as="targetPoint" />
          </mxGeometry>
        </mxCell>
        <mxCell id="rj0RwfOlwYhKOknB0tcM-210" value="" style="endArrow=none;html=1;rounded=0;exitX=1;exitY=0.5;exitDx=0;exitDy=0;entryX=0;entryY=0.5;entryDx=0;entryDy=0;" parent="1" source="rj0RwfOlwYhKOknB0tcM-21" edge="1">
          <mxGeometry width="50" height="50" relative="1" as="geometry">
            <mxPoint x="730" y="490" as="sourcePoint" />
            <mxPoint x="1680" y="195" as="targetPoint" />
          </mxGeometry>
        </mxCell>
        <mxCell id="rj0RwfOlwYhKOknB0tcM-211" value="" style="endArrow=none;html=1;rounded=0;exitX=1;exitY=0.5;exitDx=0;exitDy=0;entryX=0;entryY=0;entryDx=0;entryDy=0;" parent="1" source="rj0RwfOlwYhKOknB0tcM-21" edge="1">
          <mxGeometry width="50" height="50" relative="1" as="geometry">
            <mxPoint x="740" y="500" as="sourcePoint" />
            <mxPoint x="1604.919787350249" y="225.74866361103886" as="targetPoint" />
          </mxGeometry>
        </mxCell>
        <mxCell id="rj0RwfOlwYhKOknB0tcM-212" value="" style="endArrow=none;html=1;rounded=0;exitX=0.75;exitY=1;exitDx=0;exitDy=0;entryX=0.305;entryY=0.027;entryDx=0;entryDy=0;entryPerimeter=0;" parent="1" source="rj0RwfOlwYhKOknB0tcM-18" target="rj0RwfOlwYhKOknB0tcM-182" edge="1">
          <mxGeometry width="50" height="50" relative="1" as="geometry">
            <mxPoint x="750" y="510" as="sourcePoint" />
            <mxPoint x="800" y="460" as="targetPoint" />
          </mxGeometry>
        </mxCell>
        <mxCell id="rj0RwfOlwYhKOknB0tcM-229" value="" style="endArrow=none;html=1;rounded=0;entryX=1;entryY=0.5;entryDx=0;entryDy=0;exitX=0;exitY=0.5;exitDx=0;exitDy=0;" parent="1" target="rj0RwfOlwYhKOknB0tcM-25" edge="1">
          <mxGeometry width="50" height="50" relative="1" as="geometry">
            <mxPoint x="1620.000000000029" y="605" as="sourcePoint" />
            <mxPoint x="810" y="470" as="targetPoint" />
          </mxGeometry>
        </mxCell>
        <mxCell id="rj0RwfOlwYhKOknB0tcM-230" value="" style="endArrow=none;html=1;rounded=0;entryX=1;entryY=0.5;entryDx=0;entryDy=0;exitX=0;exitY=0.5;exitDx=0;exitDy=0;" parent="1" target="rj0RwfOlwYhKOknB0tcM-25" edge="1">
          <mxGeometry width="50" height="50" relative="1" as="geometry">
            <mxPoint x="1630" y="545" as="sourcePoint" />
            <mxPoint x="820" y="480" as="targetPoint" />
          </mxGeometry>
        </mxCell>
        <mxCell id="rj0RwfOlwYhKOknB0tcM-231" value="" style="endArrow=none;html=1;rounded=0;entryX=0.5;entryY=1;entryDx=0;entryDy=0;exitX=0.5;exitY=0;exitDx=0;exitDy=0;" parent="1" source="rj0RwfOlwYhKOknB0tcM-252" target="rj0RwfOlwYhKOknB0tcM-19" edge="1">
          <mxGeometry width="50" height="50" relative="1" as="geometry">
            <mxPoint x="780" y="540" as="sourcePoint" />
            <mxPoint x="830" y="490" as="targetPoint" />
          </mxGeometry>
        </mxCell>
        <mxCell id="rj0RwfOlwYhKOknB0tcM-232" value="" style="endArrow=none;html=1;rounded=0;entryX=0.5;entryY=1;entryDx=0;entryDy=0;exitX=0.5;exitY=0;exitDx=0;exitDy=0;" parent="1" target="rj0RwfOlwYhKOknB0tcM-19" edge="1">
          <mxGeometry width="50" height="50" relative="1" as="geometry">
            <mxPoint x="870" y="435" as="sourcePoint" />
            <mxPoint x="840" y="500" as="targetPoint" />
          </mxGeometry>
        </mxCell>
        <mxCell id="rj0RwfOlwYhKOknB0tcM-233" value="" style="endArrow=none;html=1;rounded=0;exitX=1;exitY=0.25;exitDx=0;exitDy=0;entryX=0.05;entryY=0.221;entryDx=0;entryDy=0;entryPerimeter=0;" parent="1" source="rj0RwfOlwYhKOknB0tcM-38" edge="1">
          <mxGeometry width="50" height="50" relative="1" as="geometry">
            <mxPoint x="800" y="560" as="sourcePoint" />
            <mxPoint x="495" y="1098.8400000000001" as="targetPoint" />
          </mxGeometry>
        </mxCell>
        <mxCell id="rj0RwfOlwYhKOknB0tcM-234" value="" style="endArrow=none;html=1;rounded=0;entryX=0.5;entryY=0;entryDx=0;entryDy=0;exitX=0.633;exitY=1.08;exitDx=0;exitDy=0;exitPerimeter=0;" parent="1" source="rj0RwfOlwYhKOknB0tcM-27" edge="1">
          <mxGeometry width="50" height="50" relative="1" as="geometry">
            <mxPoint x="810" y="570" as="sourcePoint" />
            <mxPoint x="1360" y="750" as="targetPoint" />
          </mxGeometry>
        </mxCell>
        <mxCell id="rj0RwfOlwYhKOknB0tcM-235" value="" style="endArrow=none;html=1;rounded=0;entryX=0.5;entryY=1;entryDx=0;entryDy=0;exitX=0.5;exitY=0;exitDx=0;exitDy=0;" parent="1" target="rj0RwfOlwYhKOknB0tcM-27" edge="1">
          <mxGeometry width="50" height="50" relative="1" as="geometry">
            <mxPoint x="1225" y="755" as="sourcePoint" />
            <mxPoint x="870" y="530" as="targetPoint" />
          </mxGeometry>
        </mxCell>
        <mxCell id="rj0RwfOlwYhKOknB0tcM-236" value="" style="endArrow=none;html=1;rounded=0;entryX=0.25;entryY=1;entryDx=0;entryDy=0;exitX=0.5;exitY=0;exitDx=0;exitDy=0;" parent="1" source="rj0RwfOlwYhKOknB0tcM-177" target="rj0RwfOlwYhKOknB0tcM-27" edge="1">
          <mxGeometry width="50" height="50" relative="1" as="geometry">
            <mxPoint x="830" y="590" as="sourcePoint" />
            <mxPoint x="880" y="540" as="targetPoint" />
          </mxGeometry>
        </mxCell>
        <mxCell id="rj0RwfOlwYhKOknB0tcM-237" value="" style="endArrow=none;html=1;rounded=0;entryX=1;entryY=0.5;entryDx=0;entryDy=0;exitX=0;exitY=0.5;exitDx=0;exitDy=0;" parent="1" source="rj0RwfOlwYhKOknB0tcM-181" target="rj0RwfOlwYhKOknB0tcM-25" edge="1">
          <mxGeometry width="50" height="50" relative="1" as="geometry">
            <mxPoint x="840" y="600" as="sourcePoint" />
            <mxPoint x="890" y="550" as="targetPoint" />
          </mxGeometry>
        </mxCell>
        <mxCell id="rj0RwfOlwYhKOknB0tcM-238" value="" style="endArrow=none;html=1;rounded=0;exitX=0.25;exitY=1;exitDx=0;exitDy=0;entryX=0.5;entryY=0;entryDx=0;entryDy=0;" parent="1" source="rj0RwfOlwYhKOknB0tcM-18" edge="1">
          <mxGeometry width="50" height="50" relative="1" as="geometry">
            <mxPoint x="850" y="610" as="sourcePoint" />
            <mxPoint x="1500" y="390" as="targetPoint" />
          </mxGeometry>
        </mxCell>
        <mxCell id="rj0RwfOlwYhKOknB0tcM-239" value="" style="endArrow=none;html=1;rounded=0;entryX=0.25;entryY=1;entryDx=0;entryDy=0;exitX=0.5;exitY=0;exitDx=0;exitDy=0;" parent="1" target="rj0RwfOlwYhKOknB0tcM-18" edge="1">
          <mxGeometry width="50" height="50" relative="1" as="geometry">
            <mxPoint x="1380" y="390" as="sourcePoint" />
            <mxPoint x="910" y="570" as="targetPoint" />
          </mxGeometry>
        </mxCell>
        <mxCell id="rj0RwfOlwYhKOknB0tcM-247" value="id (PK)" style="ellipse;whiteSpace=wrap;html=1;align=center;fontStyle=4;" parent="1" vertex="1">
          <mxGeometry x="120" y="295" width="100" height="40" as="geometry" />
        </mxCell>
        <mxCell id="rj0RwfOlwYhKOknB0tcM-251" value="id (PK)" style="ellipse;whiteSpace=wrap;html=1;align=center;fontStyle=4;" parent="1" vertex="1">
          <mxGeometry x="640" y="600" width="100" height="40" as="geometry" />
        </mxCell>
        <mxCell id="rj0RwfOlwYhKOknB0tcM-252" value="id (PK)" style="ellipse;whiteSpace=wrap;html=1;align=center;fontStyle=4;" parent="1" vertex="1">
          <mxGeometry x="690" y="435" width="100" height="40" as="geometry" />
        </mxCell>
        <mxCell id="rj0RwfOlwYhKOknB0tcM-254" value="" style="endArrow=none;html=1;rounded=0;entryX=0;entryY=0;entryDx=0;entryDy=0;" parent="1" edge="1">
          <mxGeometry width="50" height="50" relative="1" as="geometry">
            <mxPoint x="560" y="680" as="sourcePoint" />
            <mxPoint x="654.6446609406726" y="780.8578643762685" as="targetPoint" />
          </mxGeometry>
        </mxCell>
        <mxCell id="rj0RwfOlwYhKOknB0tcM-255" value="" style="endArrow=none;html=1;rounded=0;exitX=1;exitY=0.5;exitDx=0;exitDy=0;entryX=0;entryY=0.5;entryDx=0;entryDy=0;" parent="1" source="rj0RwfOlwYhKOknB0tcM-20" edge="1">
          <mxGeometry width="50" height="50" relative="1" as="geometry">
            <mxPoint x="820" y="580" as="sourcePoint" />
            <mxPoint x="640.0000000000005" y="700" as="targetPoint" />
          </mxGeometry>
        </mxCell>
        <mxCell id="rj0RwfOlwYhKOknB0tcM-256" value="" style="endArrow=none;html=1;rounded=0;exitX=1;exitY=0.5;exitDx=0;exitDy=0;entryX=0;entryY=0.5;entryDx=0;entryDy=0;" parent="1" source="rj0RwfOlwYhKOknB0tcM-20" target="rj0RwfOlwYhKOknB0tcM-251" edge="1">
          <mxGeometry width="50" height="50" relative="1" as="geometry">
            <mxPoint x="830" y="590" as="sourcePoint" />
            <mxPoint x="880" y="540" as="targetPoint" />
          </mxGeometry>
        </mxCell>
        <mxCell id="rj0RwfOlwYhKOknB0tcM-261" value="" style="endArrow=none;html=1;rounded=0;exitX=0.5;exitY=1;exitDx=0;exitDy=0;entryX=0.5;entryY=0;entryDx=0;entryDy=0;" parent="1" source="rj0RwfOlwYhKOknB0tcM-42" target="mFs4ngc85-u2YBcvQ6tv-65" edge="1">
          <mxGeometry width="50" height="50" relative="1" as="geometry">
            <mxPoint x="320" y="320" as="sourcePoint" />
            <mxPoint x="-260" y="1230" as="targetPoint" />
          </mxGeometry>
        </mxCell>
        <mxCell id="rj0RwfOlwYhKOknB0tcM-262" value="" style="endArrow=none;html=1;rounded=0;exitX=0.375;exitY=1;exitDx=0;exitDy=0;exitPerimeter=0;entryX=0.697;entryY=0.163;entryDx=0;entryDy=0;entryPerimeter=0;" parent="1" source="rj0RwfOlwYhKOknB0tcM-42" target="mFs4ngc85-u2YBcvQ6tv-66" edge="1">
          <mxGeometry width="50" height="50" relative="1" as="geometry">
            <mxPoint x="330" y="330" as="sourcePoint" />
            <mxPoint x="-390" y="1225" as="targetPoint" />
          </mxGeometry>
        </mxCell>
        <mxCell id="rj0RwfOlwYhKOknB0tcM-263" value="" style="endArrow=none;html=1;rounded=0;exitX=0.181;exitY=1.031;exitDx=0;exitDy=0;entryX=0.5;entryY=0;entryDx=0;entryDy=0;exitPerimeter=0;" parent="1" source="rj0RwfOlwYhKOknB0tcM-42" target="rj0RwfOlwYhKOknB0tcM-189" edge="1">
          <mxGeometry width="50" height="50" relative="1" as="geometry">
            <mxPoint x="340" y="340" as="sourcePoint" />
            <mxPoint x="390" y="290" as="targetPoint" />
          </mxGeometry>
        </mxCell>
        <mxCell id="rj0RwfOlwYhKOknB0tcM-273" value="" style="endArrow=none;html=1;rounded=0;exitX=0.75;exitY=1;exitDx=0;exitDy=0;entryX=0.356;entryY=0;entryDx=0;entryDy=0;entryPerimeter=0;" parent="1" source="rj0RwfOlwYhKOknB0tcM-16" target="mFs4ngc85-u2YBcvQ6tv-117" edge="1">
          <mxGeometry width="50" height="50" relative="1" as="geometry">
            <mxPoint x="90" y="850" as="sourcePoint" />
            <mxPoint x="50" y="970" as="targetPoint" />
          </mxGeometry>
        </mxCell>
        <mxCell id="rj0RwfOlwYhKOknB0tcM-274" value="" style="endArrow=none;html=1;rounded=0;exitX=0.25;exitY=1;exitDx=0;exitDy=0;entryX=0.5;entryY=0;entryDx=0;entryDy=0;" parent="1" source="rj0RwfOlwYhKOknB0tcM-16" target="rj0RwfOlwYhKOknB0tcM-195" edge="1">
          <mxGeometry width="50" height="50" relative="1" as="geometry">
            <mxPoint x="0.040000000000190994" y="986.9800000000005" as="sourcePoint" />
            <mxPoint x="219" y="865" as="targetPoint" />
          </mxGeometry>
        </mxCell>
        <mxCell id="rj0RwfOlwYhKOknB0tcM-278" value="" style="endArrow=none;html=1;rounded=0;entryX=0.5;entryY=1;entryDx=0;entryDy=0;exitX=0.5;exitY=0;exitDx=0;exitDy=0;" parent="1" source="rj0RwfOlwYhKOknB0tcM-15" edge="1">
          <mxGeometry width="50" height="50" relative="1" as="geometry">
            <mxPoint x="-30" y="420" as="sourcePoint" />
            <mxPoint x="490" y="105" as="targetPoint" />
          </mxGeometry>
        </mxCell>
        <mxCell id="rj0RwfOlwYhKOknB0tcM-279" value="" style="endArrow=none;html=1;rounded=0;entryX=0.5;entryY=1;entryDx=0;entryDy=0;exitX=0;exitY=0;exitDx=0;exitDy=0;" parent="1" source="rj0RwfOlwYhKOknB0tcM-15" target="rj0RwfOlwYhKOknB0tcM-178" edge="1">
          <mxGeometry width="50" height="50" relative="1" as="geometry">
            <mxPoint x="-30" y="420" as="sourcePoint" />
            <mxPoint x="20" y="370" as="targetPoint" />
          </mxGeometry>
        </mxCell>
        <mxCell id="rj0RwfOlwYhKOknB0tcM-309" value="*" style="text;html=1;align=center;verticalAlign=middle;whiteSpace=wrap;rounded=0;" parent="1" vertex="1">
          <mxGeometry x="-340" y="560" width="60" height="30" as="geometry" />
        </mxCell>
        <mxCell id="rj0RwfOlwYhKOknB0tcM-311" value="*&lt;span style=&quot;color: rgba(0, 0, 0, 0); font-family: monospace; font-size: 0px; text-align: start; text-wrap: nowrap;&quot;&gt;%3CmxGraphModel%3E%3Croot%3E%3CmxCell%20id%3D%220%22%2F%3E%3CmxCell%20id%3D%221%22%20parent%3D%220%22%2F%3E%3CmxCell%20id%3D%222%22%20value%3D%22%22%20style%3D%22edgeStyle%3DorthogonalEdgeStyle%3Brounded%3D0%3BorthogonalLoop%3D1%3BjettySize%3Dauto%3Bhtml%3D1%3B%22%20edge%3D%221%22%20parent%3D%221%22%3E%3CmxGeometry%20relative%3D%221%22%20as%3D%22geometry%22%3E%3CmxPoint%20x%3D%22480%22%20y%3D%221360%22%20as%3D%22sourcePoint%22%2F%3E%3CmxPoint%20x%3D%22480%22%20y%3D%221255%22%20as%3D%22targetPoint%22%2F%3E%3C%2FmxGeometry%3E%3C%2FmxCell%3E%3C%2Froot%3E%3C%2FmxGraphModel%3E&lt;/span&gt;" style="text;html=1;align=center;verticalAlign=middle;whiteSpace=wrap;rounded=0;" parent="1" vertex="1">
          <mxGeometry x="530" y="170" width="60" height="30" as="geometry" />
        </mxCell>
        <mxCell id="rj0RwfOlwYhKOknB0tcM-312" value="1" style="text;html=1;align=center;verticalAlign=middle;whiteSpace=wrap;rounded=0;" parent="1" vertex="1">
          <mxGeometry x="1400" y="-20" width="60" height="30" as="geometry" />
        </mxCell>
        <mxCell id="rj0RwfOlwYhKOknB0tcM-313" value="*" style="text;html=1;align=center;verticalAlign=middle;whiteSpace=wrap;rounded=0;" parent="1" vertex="1">
          <mxGeometry x="1370" y="100" width="60" height="30" as="geometry" />
        </mxCell>
        <mxCell id="rj0RwfOlwYhKOknB0tcM-314" value="*" style="text;html=1;align=center;verticalAlign=middle;whiteSpace=wrap;rounded=0;" parent="1" vertex="1">
          <mxGeometry x="1390" y="260" width="60" height="30" as="geometry" />
        </mxCell>
        <mxCell id="rj0RwfOlwYhKOknB0tcM-315" value="Text" style="text;html=1;align=center;verticalAlign=middle;whiteSpace=wrap;rounded=0;" parent="1" vertex="1">
          <mxGeometry x="1400" y="480" width="60" height="30" as="geometry" />
        </mxCell>
        <mxCell id="rj0RwfOlwYhKOknB0tcM-316" value="*" style="text;html=1;align=center;verticalAlign=middle;whiteSpace=wrap;rounded=0;" parent="1" vertex="1">
          <mxGeometry x="1180" y="545" width="60" height="30" as="geometry" />
        </mxCell>
        <mxCell id="rj0RwfOlwYhKOknB0tcM-317" value="*" style="text;html=1;align=center;verticalAlign=middle;whiteSpace=wrap;rounded=0;" parent="1" vertex="1">
          <mxGeometry x="370" y="1190" width="60" height="30" as="geometry" />
        </mxCell>
        <mxCell id="rj0RwfOlwYhKOknB0tcM-318" value="1" style="text;html=1;align=center;verticalAlign=middle;whiteSpace=wrap;rounded=0;" parent="1" vertex="1">
          <mxGeometry x="160" y="1020" width="60" height="30" as="geometry" />
        </mxCell>
        <mxCell id="rj0RwfOlwYhKOknB0tcM-322" value="*" style="text;html=1;align=center;verticalAlign=middle;whiteSpace=wrap;rounded=0;" parent="1" vertex="1">
          <mxGeometry x="20" y="840" width="60" height="30" as="geometry" />
        </mxCell>
        <mxCell id="rj0RwfOlwYhKOknB0tcM-323" value="*" style="text;html=1;align=center;verticalAlign=middle;whiteSpace=wrap;rounded=0;" parent="1" vertex="1">
          <mxGeometry x="20" y="695" width="60" height="30" as="geometry" />
        </mxCell>
        <mxCell id="rj0RwfOlwYhKOknB0tcM-324" value="*" style="text;html=1;align=center;verticalAlign=middle;whiteSpace=wrap;rounded=0;" parent="1" vertex="1">
          <mxGeometry x="40" y="465" width="60" height="30" as="geometry" />
        </mxCell>
        <mxCell id="rj0RwfOlwYhKOknB0tcM-326" value="1" style="text;html=1;align=center;verticalAlign=middle;whiteSpace=wrap;rounded=0;" parent="1" vertex="1">
          <mxGeometry x="420" y="620" width="60" height="30" as="geometry" />
        </mxCell>
        <mxCell id="rj0RwfOlwYhKOknB0tcM-327" value="*" style="text;html=1;align=center;verticalAlign=middle;whiteSpace=wrap;rounded=0;" parent="1" vertex="1">
          <mxGeometry x="290" y="420" width="60" height="30" as="geometry" />
        </mxCell>
        <mxCell id="rj0RwfOlwYhKOknB0tcM-328" value="*" style="text;html=1;align=center;verticalAlign=middle;whiteSpace=wrap;rounded=0;" parent="1" vertex="1">
          <mxGeometry x="1190" y="180" width="60" height="30" as="geometry" />
        </mxCell>
        <mxCell id="rj0RwfOlwYhKOknB0tcM-329" value="*" style="text;html=1;align=center;verticalAlign=middle;whiteSpace=wrap;rounded=0;" parent="1" vertex="1">
          <mxGeometry x="1120" y="230" width="60" height="30" as="geometry" />
        </mxCell>
        <mxCell id="rj0RwfOlwYhKOknB0tcM-330" value="*" style="text;html=1;align=center;verticalAlign=middle;whiteSpace=wrap;rounded=0;" parent="1" vertex="1">
          <mxGeometry x="1000" y="225" width="60" height="30" as="geometry" />
        </mxCell>
        <mxCell id="rj0RwfOlwYhKOknB0tcM-331" value="*" style="text;html=1;align=center;verticalAlign=middle;whiteSpace=wrap;rounded=0;" parent="1" vertex="1">
          <mxGeometry x="880" y="290" width="60" height="30" as="geometry" />
        </mxCell>
        <mxCell id="rj0RwfOlwYhKOknB0tcM-334" value="*" style="text;html=1;align=center;verticalAlign=middle;whiteSpace=wrap;rounded=0;" parent="1" vertex="1">
          <mxGeometry x="690" y="300" width="60" height="30" as="geometry" />
        </mxCell>
        <mxCell id="rj0RwfOlwYhKOknB0tcM-336" value="*" style="text;html=1;align=center;verticalAlign=middle;whiteSpace=wrap;rounded=0;" parent="1" vertex="1">
          <mxGeometry x="360" y="155" width="60" height="30" as="geometry" />
        </mxCell>
        <mxCell id="rj0RwfOlwYhKOknB0tcM-337" value="1" style="text;html=1;align=center;verticalAlign=middle;whiteSpace=wrap;rounded=0;" parent="1" vertex="1">
          <mxGeometry x="-50" y="160" width="60" height="30" as="geometry" />
        </mxCell>
        <mxCell id="rj0RwfOlwYhKOknB0tcM-343" value="1" style="text;html=1;align=center;verticalAlign=middle;whiteSpace=wrap;rounded=0;" parent="1" vertex="1">
          <mxGeometry x="470" y="230" width="60" height="30" as="geometry" />
        </mxCell>
        <mxCell id="rj0RwfOlwYhKOknB0tcM-344" value="*&lt;span style=&quot;color: rgba(0, 0, 0, 0); font-family: monospace; font-size: 0px; text-align: start; text-wrap: nowrap;&quot;&gt;%3CmxGraphModel%3E%3Croot%3E%3CmxCell%20id%3D%220%22%2F%3E%3CmxCell%20id%3D%221%22%20parent%3D%220%22%2F%3E%3CmxCell%20id%3D%222%22%20value%3D%22%22%20style%3D%22edgeStyle%3DorthogonalEdgeStyle%3Brounded%3D0%3BorthogonalLoop%3D1%3BjettySize%3Dauto%3Bhtml%3D1%3B%22%20edge%3D%221%22%20parent%3D%221%22%3E%3CmxGeometry%20relative%3D%221%22%20as%3D%22geometry%22%3E%3CmxPoint%20x%3D%22480%22%20y%3D%221360%22%20as%3D%22sourcePoint%22%2F%3E%3CmxPoint%20x%3D%22480%22%20y%3D%221255%22%20as%3D%22targetPoint%22%2F%3E%3C%2FmxGeometry%3E%3C%2FmxCell%3E%3C%2Froot%3E%3C%2FmxGraphModel%3E&lt;/span&gt;" style="text;html=1;align=center;verticalAlign=middle;whiteSpace=wrap;rounded=0;" parent="1" vertex="1">
          <mxGeometry x="380" y="685" width="60" height="30" as="geometry" />
        </mxCell>
        <mxCell id="mzSfsBMmuloAMj2JJf1q-1" value="SuperAdmin" style="swimlane;fontStyle=0;childLayout=stackLayout;horizontal=1;startSize=30;fillColor=none;horizontalStack=0;resizeParent=1;resizeParentMax=0;resizeLast=0;collapsible=1;marginBottom=0;whiteSpace=wrap;html=1;" parent="1" vertex="1">
          <mxGeometry x="-300" y="1800" width="140" height="56" as="geometry" />
        </mxCell>
        <mxCell id="mzSfsBMmuloAMj2JJf1q-2" value="+ id: integer" style="text;strokeColor=none;fillColor=none;align=left;verticalAlign=top;spacingLeft=4;spacingRight=4;overflow=hidden;rotatable=0;points=[[0,0.5],[1,0.5]];portConstraint=eastwest;whiteSpace=wrap;html=1;" parent="mzSfsBMmuloAMj2JJf1q-1" vertex="1">
          <mxGeometry y="30" width="140" height="26" as="geometry" />
        </mxCell>
        <mxCell id="mzSfsBMmuloAMj2JJf1q-5" value="Admin" style="swimlane;fontStyle=0;childLayout=stackLayout;horizontal=1;startSize=26;fillColor=none;horizontalStack=0;resizeParent=1;resizeParentMax=0;resizeLast=0;collapsible=1;marginBottom=0;whiteSpace=wrap;html=1;" parent="1" vertex="1">
          <mxGeometry x="-70" y="1800" width="140" height="78" as="geometry" />
        </mxCell>
        <mxCell id="mzSfsBMmuloAMj2JJf1q-6" value="+ id: integer" style="text;strokeColor=none;fillColor=none;align=left;verticalAlign=top;spacingLeft=4;spacingRight=4;overflow=hidden;rotatable=0;points=[[0,0.5],[1,0.5]];portConstraint=eastwest;whiteSpace=wrap;html=1;" parent="mzSfsBMmuloAMj2JJf1q-5" vertex="1">
          <mxGeometry y="26" width="140" height="26" as="geometry" />
        </mxCell>
        <mxCell id="mzSfsBMmuloAMj2JJf1q-7" value="+ username: string&amp;nbsp;" style="text;strokeColor=none;fillColor=none;align=left;verticalAlign=top;spacingLeft=4;spacingRight=4;overflow=hidden;rotatable=0;points=[[0,0.5],[1,0.5]];portConstraint=eastwest;whiteSpace=wrap;html=1;" parent="mzSfsBMmuloAMj2JJf1q-5" vertex="1">
          <mxGeometry y="52" width="140" height="26" as="geometry" />
        </mxCell>
        <mxCell id="mzSfsBMmuloAMj2JJf1q-9" value="" style="endArrow=none;html=1;rounded=0;entryX=-0.003;entryY=0.033;entryDx=0;entryDy=0;entryPerimeter=0;" parent="1" target="mzSfsBMmuloAMj2JJf1q-6" edge="1">
          <mxGeometry width="50" height="50" relative="1" as="geometry">
            <mxPoint x="-158" y="1827" as="sourcePoint" />
            <mxPoint x="20" y="1790" as="targetPoint" />
          </mxGeometry>
        </mxCell>
        <mxCell id="mzSfsBMmuloAMj2JJf1q-10" value="Tedarik" style="swimlane;fontStyle=0;childLayout=stackLayout;horizontal=1;startSize=26;fillColor=none;horizontalStack=0;resizeParent=1;resizeParentMax=0;resizeLast=0;collapsible=1;marginBottom=0;whiteSpace=wrap;html=1;" parent="1" vertex="1">
          <mxGeometry x="200" y="2380" width="140" height="104" as="geometry" />
        </mxCell>
        <mxCell id="mzSfsBMmuloAMj2JJf1q-11" value="+ id: integer" style="text;strokeColor=none;fillColor=none;align=left;verticalAlign=top;spacingLeft=4;spacingRight=4;overflow=hidden;rotatable=0;points=[[0,0.5],[1,0.5]];portConstraint=eastwest;whiteSpace=wrap;html=1;" parent="mzSfsBMmuloAMj2JJf1q-10" vertex="1">
          <mxGeometry y="26" width="140" height="26" as="geometry" />
        </mxCell>
        <mxCell id="mzSfsBMmuloAMj2JJf1q-12" value="+ iiletişim: integer" style="text;strokeColor=none;fillColor=none;align=left;verticalAlign=top;spacingLeft=4;spacingRight=4;overflow=hidden;rotatable=0;points=[[0,0.5],[1,0.5]];portConstraint=eastwest;whiteSpace=wrap;html=1;" parent="mzSfsBMmuloAMj2JJf1q-10" vertex="1">
          <mxGeometry y="52" width="140" height="26" as="geometry" />
        </mxCell>
        <mxCell id="mzSfsBMmuloAMj2JJf1q-13" value="+ adi: string" style="text;strokeColor=none;fillColor=none;align=left;verticalAlign=top;spacingLeft=4;spacingRight=4;overflow=hidden;rotatable=0;points=[[0,0.5],[1,0.5]];portConstraint=eastwest;whiteSpace=wrap;html=1;" parent="mzSfsBMmuloAMj2JJf1q-10" vertex="1">
          <mxGeometry y="78" width="140" height="26" as="geometry" />
        </mxCell>
        <mxCell id="mzSfsBMmuloAMj2JJf1q-14" value="Stok" style="swimlane;fontStyle=0;childLayout=stackLayout;horizontal=1;startSize=26;fillColor=none;horizontalStack=0;resizeParent=1;resizeParentMax=0;resizeLast=0;collapsible=1;marginBottom=0;whiteSpace=wrap;html=1;" parent="1" vertex="1">
          <mxGeometry x="510" y="2460" width="140" height="52" as="geometry" />
        </mxCell>
        <mxCell id="mzSfsBMmuloAMj2JJf1q-16" value="+ id: integer" style="text;strokeColor=none;fillColor=none;align=left;verticalAlign=top;spacingLeft=4;spacingRight=4;overflow=hidden;rotatable=0;points=[[0,0.5],[1,0.5]];portConstraint=eastwest;whiteSpace=wrap;html=1;" parent="mzSfsBMmuloAMj2JJf1q-14" vertex="1">
          <mxGeometry y="26" width="140" height="26" as="geometry" />
        </mxCell>
        <mxCell id="mzSfsBMmuloAMj2JJf1q-18" value="Restaurant" style="swimlane;fontStyle=0;childLayout=stackLayout;horizontal=1;startSize=26;fillColor=none;horizontalStack=0;resizeParent=1;resizeParentMax=0;resizeLast=0;collapsible=1;marginBottom=0;whiteSpace=wrap;html=1;" parent="1" vertex="1">
          <mxGeometry x="200" y="2160" width="140" height="104" as="geometry" />
        </mxCell>
        <mxCell id="mzSfsBMmuloAMj2JJf1q-19" value="+ id: integer" style="text;strokeColor=none;fillColor=none;align=left;verticalAlign=top;spacingLeft=4;spacingRight=4;overflow=hidden;rotatable=0;points=[[0,0.5],[1,0.5]];portConstraint=eastwest;whiteSpace=wrap;html=1;" parent="mzSfsBMmuloAMj2JJf1q-18" vertex="1">
          <mxGeometry y="26" width="140" height="26" as="geometry" />
        </mxCell>
        <mxCell id="mzSfsBMmuloAMj2JJf1q-20" value="+ field: type" style="text;strokeColor=none;fillColor=none;align=left;verticalAlign=top;spacingLeft=4;spacingRight=4;overflow=hidden;rotatable=0;points=[[0,0.5],[1,0.5]];portConstraint=eastwest;whiteSpace=wrap;html=1;" parent="mzSfsBMmuloAMj2JJf1q-18" vertex="1">
          <mxGeometry y="52" width="140" height="26" as="geometry" />
        </mxCell>
        <mxCell id="mzSfsBMmuloAMj2JJf1q-21" value="+ field: type" style="text;strokeColor=none;fillColor=none;align=left;verticalAlign=top;spacingLeft=4;spacingRight=4;overflow=hidden;rotatable=0;points=[[0,0.5],[1,0.5]];portConstraint=eastwest;whiteSpace=wrap;html=1;" parent="mzSfsBMmuloAMj2JJf1q-18" vertex="1">
          <mxGeometry y="78" width="140" height="26" as="geometry" />
        </mxCell>
        <mxCell id="mzSfsBMmuloAMj2JJf1q-22" value="GeriBildirim" style="swimlane;fontStyle=0;childLayout=stackLayout;horizontal=1;startSize=26;fillColor=none;horizontalStack=0;resizeParent=1;resizeParentMax=0;resizeLast=0;collapsible=1;marginBottom=0;whiteSpace=wrap;html=1;" parent="1" vertex="1">
          <mxGeometry x="630" y="2096" width="140" height="104" as="geometry" />
        </mxCell>
        <mxCell id="mzSfsBMmuloAMj2JJf1q-23" value="+ id: integer" style="text;strokeColor=none;fillColor=none;align=left;verticalAlign=top;spacingLeft=4;spacingRight=4;overflow=hidden;rotatable=0;points=[[0,0.5],[1,0.5]];portConstraint=eastwest;whiteSpace=wrap;html=1;" parent="mzSfsBMmuloAMj2JJf1q-22" vertex="1">
          <mxGeometry y="26" width="140" height="26" as="geometry" />
        </mxCell>
        <mxCell id="mzSfsBMmuloAMj2JJf1q-24" value="+ kullaniciID: integer" style="text;strokeColor=none;fillColor=none;align=left;verticalAlign=top;spacingLeft=4;spacingRight=4;overflow=hidden;rotatable=0;points=[[0,0.5],[1,0.5]];portConstraint=eastwest;whiteSpace=wrap;html=1;" parent="mzSfsBMmuloAMj2JJf1q-22" vertex="1">
          <mxGeometry y="52" width="140" height="26" as="geometry" />
        </mxCell>
        <mxCell id="mzSfsBMmuloAMj2JJf1q-25" value="+ yorum: string" style="text;strokeColor=none;fillColor=none;align=left;verticalAlign=top;spacingLeft=4;spacingRight=4;overflow=hidden;rotatable=0;points=[[0,0.5],[1,0.5]];portConstraint=eastwest;whiteSpace=wrap;html=1;" parent="mzSfsBMmuloAMj2JJf1q-22" vertex="1">
          <mxGeometry y="78" width="140" height="26" as="geometry" />
        </mxCell>
        <mxCell id="mzSfsBMmuloAMj2JJf1q-26" value="Siparis" style="swimlane;fontStyle=0;childLayout=stackLayout;horizontal=1;startSize=26;fillColor=none;horizontalStack=0;resizeParent=1;resizeParentMax=0;resizeLast=0;collapsible=1;marginBottom=0;whiteSpace=wrap;html=1;" parent="1" vertex="1">
          <mxGeometry x="810" y="2040" width="140" height="104" as="geometry" />
        </mxCell>
        <mxCell id="mzSfsBMmuloAMj2JJf1q-27" value="+ id: integer" style="text;strokeColor=none;fillColor=none;align=left;verticalAlign=top;spacingLeft=4;spacingRight=4;overflow=hidden;rotatable=0;points=[[0,0.5],[1,0.5]];portConstraint=eastwest;whiteSpace=wrap;html=1;" parent="mzSfsBMmuloAMj2JJf1q-26" vertex="1">
          <mxGeometry y="26" width="140" height="26" as="geometry" />
        </mxCell>
        <mxCell id="mzSfsBMmuloAMj2JJf1q-28" value="+ tutar: integer" style="text;strokeColor=none;fillColor=none;align=left;verticalAlign=top;spacingLeft=4;spacingRight=4;overflow=hidden;rotatable=0;points=[[0,0.5],[1,0.5]];portConstraint=eastwest;whiteSpace=wrap;html=1;" parent="mzSfsBMmuloAMj2JJf1q-26" vertex="1">
          <mxGeometry y="52" width="140" height="26" as="geometry" />
        </mxCell>
        <mxCell id="mzSfsBMmuloAMj2JJf1q-29" value="+ tarih: string" style="text;strokeColor=none;fillColor=none;align=left;verticalAlign=top;spacingLeft=4;spacingRight=4;overflow=hidden;rotatable=0;points=[[0,0.5],[1,0.5]];portConstraint=eastwest;whiteSpace=wrap;html=1;" parent="mzSfsBMmuloAMj2JJf1q-26" vertex="1">
          <mxGeometry y="78" width="140" height="26" as="geometry" />
        </mxCell>
        <mxCell id="mzSfsBMmuloAMj2JJf1q-30" value="Rezervasyon" style="swimlane;fontStyle=0;childLayout=stackLayout;horizontal=1;startSize=26;fillColor=none;horizontalStack=0;resizeParent=1;resizeParentMax=0;resizeLast=0;collapsible=1;marginBottom=0;whiteSpace=wrap;html=1;" parent="1" vertex="1">
          <mxGeometry x="800" y="1710" width="140" height="140" as="geometry" />
        </mxCell>
        <mxCell id="mzSfsBMmuloAMj2JJf1q-31" value="+ id: integer" style="text;strokeColor=none;fillColor=none;align=left;verticalAlign=top;spacingLeft=4;spacingRight=4;overflow=hidden;rotatable=0;points=[[0,0.5],[1,0.5]];portConstraint=eastwest;whiteSpace=wrap;html=1;" parent="mzSfsBMmuloAMj2JJf1q-30" vertex="1">
          <mxGeometry y="26" width="140" height="26" as="geometry" />
        </mxCell>
        <mxCell id="mzSfsBMmuloAMj2JJf1q-32" value="+ tarih: string" style="text;strokeColor=none;fillColor=none;align=left;verticalAlign=top;spacingLeft=4;spacingRight=4;overflow=hidden;rotatable=0;points=[[0,0.5],[1,0.5]];portConstraint=eastwest;whiteSpace=wrap;html=1;" parent="mzSfsBMmuloAMj2JJf1q-30" vertex="1">
          <mxGeometry y="52" width="140" height="26" as="geometry" />
        </mxCell>
        <mxCell id="mzSfsBMmuloAMj2JJf1q-33" value="+ kullaniciID: integer&lt;div&gt;&lt;br&gt;&lt;/div&gt;&lt;div&gt;+masaID: integer&lt;/div&gt;" style="text;strokeColor=none;fillColor=none;align=left;verticalAlign=top;spacingLeft=4;spacingRight=4;overflow=hidden;rotatable=0;points=[[0,0.5],[1,0.5]];portConstraint=eastwest;whiteSpace=wrap;html=1;" parent="mzSfsBMmuloAMj2JJf1q-30" vertex="1">
          <mxGeometry y="78" width="140" height="62" as="geometry" />
        </mxCell>
        <mxCell id="mzSfsBMmuloAMj2JJf1q-34" value="Odeme" style="swimlane;fontStyle=0;childLayout=stackLayout;horizontal=1;startSize=26;fillColor=none;horizontalStack=0;resizeParent=1;resizeParentMax=0;resizeLast=0;collapsible=1;marginBottom=0;whiteSpace=wrap;html=1;" parent="1" vertex="1">
          <mxGeometry x="800" y="1860" width="140" height="104" as="geometry" />
        </mxCell>
        <mxCell id="mzSfsBMmuloAMj2JJf1q-36" value="+ field: type" style="text;strokeColor=none;fillColor=none;align=left;verticalAlign=top;spacingLeft=4;spacingRight=4;overflow=hidden;rotatable=0;points=[[0,0.5],[1,0.5]];portConstraint=eastwest;whiteSpace=wrap;html=1;" parent="mzSfsBMmuloAMj2JJf1q-34" vertex="1">
          <mxGeometry y="26" width="140" height="26" as="geometry" />
        </mxCell>
        <mxCell id="mzSfsBMmuloAMj2JJf1q-35" value="+ tutar: integer" style="text;strokeColor=none;fillColor=none;align=left;verticalAlign=top;spacingLeft=4;spacingRight=4;overflow=hidden;rotatable=0;points=[[0,0.5],[1,0.5]];portConstraint=eastwest;whiteSpace=wrap;html=1;" parent="mzSfsBMmuloAMj2JJf1q-34" vertex="1">
          <mxGeometry y="52" width="140" height="26" as="geometry" />
        </mxCell>
        <mxCell id="mzSfsBMmuloAMj2JJf1q-37" value="+ tarih: string" style="text;strokeColor=none;fillColor=none;align=left;verticalAlign=top;spacingLeft=4;spacingRight=4;overflow=hidden;rotatable=0;points=[[0,0.5],[1,0.5]];portConstraint=eastwest;whiteSpace=wrap;html=1;" parent="mzSfsBMmuloAMj2JJf1q-34" vertex="1">
          <mxGeometry y="78" width="140" height="26" as="geometry" />
        </mxCell>
        <mxCell id="mzSfsBMmuloAMj2JJf1q-42" value="Indirim" style="swimlane;fontStyle=0;childLayout=stackLayout;horizontal=1;startSize=26;fillColor=none;horizontalStack=0;resizeParent=1;resizeParentMax=0;resizeLast=0;collapsible=1;marginBottom=0;whiteSpace=wrap;html=1;" parent="1" vertex="1">
          <mxGeometry x="550" y="1630" width="140" height="104" as="geometry" />
        </mxCell>
        <mxCell id="mzSfsBMmuloAMj2JJf1q-43" value="&lt;span style=&quot;color: rgb(0, 0, 0); font-family: Helvetica; font-size: 12px; font-style: normal; font-variant-ligatures: normal; font-variant-caps: normal; font-weight: 400; letter-spacing: normal; orphans: 2; text-align: left; text-indent: 0px; text-transform: none; widows: 2; word-spacing: 0px; -webkit-text-stroke-width: 0px; white-space: normal; background-color: rgb(251, 251, 251); text-decoration-thickness: initial; text-decoration-style: initial; text-decoration-color: initial; display: inline !important; float: none;&quot;&gt;+ id: integer&lt;/span&gt;&lt;div&gt;&lt;br/&gt;&lt;/div&gt;" style="text;strokeColor=none;fillColor=none;align=left;verticalAlign=top;spacingLeft=4;spacingRight=4;overflow=hidden;rotatable=0;points=[[0,0.5],[1,0.5]];portConstraint=eastwest;whiteSpace=wrap;html=1;" parent="mzSfsBMmuloAMj2JJf1q-42" vertex="1">
          <mxGeometry y="26" width="140" height="26" as="geometry" />
        </mxCell>
        <mxCell id="mzSfsBMmuloAMj2JJf1q-44" value="+ tutar: integer" style="text;strokeColor=none;fillColor=none;align=left;verticalAlign=top;spacingLeft=4;spacingRight=4;overflow=hidden;rotatable=0;points=[[0,0.5],[1,0.5]];portConstraint=eastwest;whiteSpace=wrap;html=1;" parent="mzSfsBMmuloAMj2JJf1q-42" vertex="1">
          <mxGeometry y="52" width="140" height="26" as="geometry" />
        </mxCell>
        <mxCell id="mzSfsBMmuloAMj2JJf1q-45" value="+ gecerlilikTarihi: string" style="text;strokeColor=none;fillColor=none;align=left;verticalAlign=top;spacingLeft=4;spacingRight=4;overflow=hidden;rotatable=0;points=[[0,0.5],[1,0.5]];portConstraint=eastwest;whiteSpace=wrap;html=1;" parent="mzSfsBMmuloAMj2JJf1q-42" vertex="1">
          <mxGeometry y="78" width="140" height="26" as="geometry" />
        </mxCell>
        <mxCell id="mzSfsBMmuloAMj2JJf1q-46" value="Kullanici" style="swimlane;fontStyle=0;childLayout=stackLayout;horizontal=1;startSize=26;fillColor=none;horizontalStack=0;resizeParent=1;resizeParentMax=0;resizeLast=0;collapsible=1;marginBottom=0;whiteSpace=wrap;html=1;" parent="1" vertex="1">
          <mxGeometry x="450" y="1800" width="140" height="130" as="geometry" />
        </mxCell>
        <mxCell id="mzSfsBMmuloAMj2JJf1q-47" value="+ id: integer" style="text;strokeColor=none;fillColor=none;align=left;verticalAlign=top;spacingLeft=4;spacingRight=4;overflow=hidden;rotatable=0;points=[[0,0.5],[1,0.5]];portConstraint=eastwest;whiteSpace=wrap;html=1;" parent="mzSfsBMmuloAMj2JJf1q-46" vertex="1">
          <mxGeometry y="26" width="140" height="26" as="geometry" />
        </mxCell>
        <mxCell id="mzSfsBMmuloAMj2JJf1q-48" value="+ username: string&amp;nbsp;" style="text;strokeColor=none;fillColor=none;align=left;verticalAlign=top;spacingLeft=4;spacingRight=4;overflow=hidden;rotatable=0;points=[[0,0.5],[1,0.5]];portConstraint=eastwest;whiteSpace=wrap;html=1;" parent="mzSfsBMmuloAMj2JJf1q-46" vertex="1">
          <mxGeometry y="52" width="140" height="26" as="geometry" />
        </mxCell>
        <mxCell id="mzSfsBMmuloAMj2JJf1q-49" value="+ password: string&amp;nbsp;&lt;div&gt;&lt;br&gt;&lt;div&gt;+ adress: string&amp;nbsp;&lt;br&gt;&lt;/div&gt;&lt;/div&gt;" style="text;strokeColor=none;fillColor=none;align=left;verticalAlign=top;spacingLeft=4;spacingRight=4;overflow=hidden;rotatable=0;points=[[0,0.5],[1,0.5]];portConstraint=eastwest;whiteSpace=wrap;html=1;" parent="mzSfsBMmuloAMj2JJf1q-46" vertex="1">
          <mxGeometry y="78" width="140" height="52" as="geometry" />
        </mxCell>
        <mxCell id="mzSfsBMmuloAMj2JJf1q-50" value="Iletisim" style="swimlane;fontStyle=0;childLayout=stackLayout;horizontal=1;startSize=26;fillColor=none;horizontalStack=0;resizeParent=1;resizeParentMax=0;resizeLast=0;collapsible=1;marginBottom=0;whiteSpace=wrap;html=1;" parent="1" vertex="1">
          <mxGeometry x="200" y="1800" width="140" height="78" as="geometry" />
        </mxCell>
        <mxCell id="mzSfsBMmuloAMj2JJf1q-51" value="+ id: integer" style="text;strokeColor=none;fillColor=none;align=left;verticalAlign=top;spacingLeft=4;spacingRight=4;overflow=hidden;rotatable=0;points=[[0,0.5],[1,0.5]];portConstraint=eastwest;whiteSpace=wrap;html=1;" parent="mzSfsBMmuloAMj2JJf1q-50" vertex="1">
          <mxGeometry y="26" width="140" height="26" as="geometry" />
        </mxCell>
        <mxCell id="mzSfsBMmuloAMj2JJf1q-52" value="+ userId: integer" style="text;strokeColor=none;fillColor=none;align=left;verticalAlign=top;spacingLeft=4;spacingRight=4;overflow=hidden;rotatable=0;points=[[0,0.5],[1,0.5]];portConstraint=eastwest;whiteSpace=wrap;html=1;" parent="mzSfsBMmuloAMj2JJf1q-50" vertex="1">
          <mxGeometry y="52" width="140" height="26" as="geometry" />
        </mxCell>
        <mxCell id="mzSfsBMmuloAMj2JJf1q-54" value="Vardia" style="swimlane;fontStyle=0;childLayout=stackLayout;horizontal=1;startSize=26;fillColor=none;horizontalStack=0;resizeParent=1;resizeParentMax=0;resizeLast=0;collapsible=1;marginBottom=0;whiteSpace=wrap;html=1;" parent="1" vertex="1">
          <mxGeometry x="-360" y="2530" width="150" height="104" as="geometry" />
        </mxCell>
        <mxCell id="mzSfsBMmuloAMj2JJf1q-55" value="+ id: integer" style="text;strokeColor=none;fillColor=none;align=left;verticalAlign=top;spacingLeft=4;spacingRight=4;overflow=hidden;rotatable=0;points=[[0,0.5],[1,0.5]];portConstraint=eastwest;whiteSpace=wrap;html=1;" parent="mzSfsBMmuloAMj2JJf1q-54" vertex="1">
          <mxGeometry y="26" width="150" height="26" as="geometry" />
        </mxCell>
        <mxCell id="mzSfsBMmuloAMj2JJf1q-56" value="+ calısmaSaatleri: integer" style="text;strokeColor=none;fillColor=none;align=left;verticalAlign=top;spacingLeft=4;spacingRight=4;overflow=hidden;rotatable=0;points=[[0,0.5],[1,0.5]];portConstraint=eastwest;whiteSpace=wrap;html=1;" parent="mzSfsBMmuloAMj2JJf1q-54" vertex="1">
          <mxGeometry y="52" width="150" height="26" as="geometry" />
        </mxCell>
        <mxCell id="mzSfsBMmuloAMj2JJf1q-57" value="+ calısanID: integer" style="text;strokeColor=none;fillColor=none;align=left;verticalAlign=top;spacingLeft=4;spacingRight=4;overflow=hidden;rotatable=0;points=[[0,0.5],[1,0.5]];portConstraint=eastwest;whiteSpace=wrap;html=1;" parent="mzSfsBMmuloAMj2JJf1q-54" vertex="1">
          <mxGeometry y="78" width="150" height="26" as="geometry" />
        </mxCell>
        <mxCell id="mzSfsBMmuloAMj2JJf1q-58" value="Garson" style="swimlane;fontStyle=0;childLayout=stackLayout;horizontal=1;startSize=26;fillColor=none;horizontalStack=0;resizeParent=1;resizeParentMax=0;resizeLast=0;collapsible=1;marginBottom=0;whiteSpace=wrap;html=1;" parent="1" vertex="1">
          <mxGeometry x="-360" y="2330" width="140" height="78" as="geometry" />
        </mxCell>
        <mxCell id="mzSfsBMmuloAMj2JJf1q-59" value="+ id: integer" style="text;strokeColor=none;fillColor=none;align=left;verticalAlign=top;spacingLeft=4;spacingRight=4;overflow=hidden;rotatable=0;points=[[0,0.5],[1,0.5]];portConstraint=eastwest;whiteSpace=wrap;html=1;" parent="mzSfsBMmuloAMj2JJf1q-58" vertex="1">
          <mxGeometry y="26" width="140" height="26" as="geometry" />
        </mxCell>
        <mxCell id="mzSfsBMmuloAMj2JJf1q-60" value="+ adi: string" style="text;strokeColor=none;fillColor=none;align=left;verticalAlign=top;spacingLeft=4;spacingRight=4;overflow=hidden;rotatable=0;points=[[0,0.5],[1,0.5]];portConstraint=eastwest;whiteSpace=wrap;html=1;" parent="mzSfsBMmuloAMj2JJf1q-58" vertex="1">
          <mxGeometry y="52" width="140" height="26" as="geometry" />
        </mxCell>
        <mxCell id="mzSfsBMmuloAMj2JJf1q-62" value="Sef" style="swimlane;fontStyle=0;childLayout=stackLayout;horizontal=1;startSize=26;fillColor=none;horizontalStack=0;resizeParent=1;resizeParentMax=0;resizeLast=0;collapsible=1;marginBottom=0;whiteSpace=wrap;html=1;" parent="1" vertex="1">
          <mxGeometry x="-370" y="2130" width="140" height="78" as="geometry" />
        </mxCell>
        <mxCell id="mzSfsBMmuloAMj2JJf1q-63" value="+ id: integer" style="text;strokeColor=none;fillColor=none;align=left;verticalAlign=top;spacingLeft=4;spacingRight=4;overflow=hidden;rotatable=0;points=[[0,0.5],[1,0.5]];portConstraint=eastwest;whiteSpace=wrap;html=1;" parent="mzSfsBMmuloAMj2JJf1q-62" vertex="1">
          <mxGeometry y="26" width="140" height="26" as="geometry" />
        </mxCell>
        <mxCell id="mzSfsBMmuloAMj2JJf1q-64" value="+ adi: string" style="text;strokeColor=none;fillColor=none;align=left;verticalAlign=top;spacingLeft=4;spacingRight=4;overflow=hidden;rotatable=0;points=[[0,0.5],[1,0.5]];portConstraint=eastwest;whiteSpace=wrap;html=1;" parent="mzSfsBMmuloAMj2JJf1q-62" vertex="1">
          <mxGeometry y="52" width="140" height="26" as="geometry" />
        </mxCell>
        <mxCell id="mzSfsBMmuloAMj2JJf1q-66" value="Masa" style="swimlane;fontStyle=0;childLayout=stackLayout;horizontal=1;startSize=26;fillColor=none;horizontalStack=0;resizeParent=1;resizeParentMax=0;resizeLast=0;collapsible=1;marginBottom=0;whiteSpace=wrap;html=1;" parent="1" vertex="1">
          <mxGeometry x="-70" y="1990" width="140" height="52" as="geometry" />
        </mxCell>
        <mxCell id="mzSfsBMmuloAMj2JJf1q-67" value="+ id: integer" style="text;strokeColor=none;fillColor=none;align=left;verticalAlign=top;spacingLeft=4;spacingRight=4;overflow=hidden;rotatable=0;points=[[0,0.5],[1,0.5]];portConstraint=eastwest;whiteSpace=wrap;html=1;" parent="mzSfsBMmuloAMj2JJf1q-66" vertex="1">
          <mxGeometry y="26" width="140" height="26" as="geometry" />
        </mxCell>
        <mxCell id="mzSfsBMmuloAMj2JJf1q-70" value="MenuOgesi" style="swimlane;fontStyle=0;childLayout=stackLayout;horizontal=1;startSize=26;fillColor=none;horizontalStack=0;resizeParent=1;resizeParentMax=0;resizeLast=0;collapsible=1;marginBottom=0;whiteSpace=wrap;html=1;" parent="1" vertex="1">
          <mxGeometry x="-70" y="2556" width="140" height="78" as="geometry" />
        </mxCell>
        <mxCell id="mzSfsBMmuloAMj2JJf1q-71" value="+ id: integer" style="text;strokeColor=none;fillColor=none;align=left;verticalAlign=top;spacingLeft=4;spacingRight=4;overflow=hidden;rotatable=0;points=[[0,0.5],[1,0.5]];portConstraint=eastwest;whiteSpace=wrap;html=1;" parent="mzSfsBMmuloAMj2JJf1q-70" vertex="1">
          <mxGeometry y="26" width="140" height="26" as="geometry" />
        </mxCell>
        <mxCell id="mzSfsBMmuloAMj2JJf1q-72" value="+ icerik: string" style="text;strokeColor=none;fillColor=none;align=left;verticalAlign=top;spacingLeft=4;spacingRight=4;overflow=hidden;rotatable=0;points=[[0,0.5],[1,0.5]];portConstraint=eastwest;whiteSpace=wrap;html=1;" parent="mzSfsBMmuloAMj2JJf1q-70" vertex="1">
          <mxGeometry y="52" width="140" height="26" as="geometry" />
        </mxCell>
        <mxCell id="mzSfsBMmuloAMj2JJf1q-74" value="Menu" style="swimlane;fontStyle=0;childLayout=stackLayout;horizontal=1;startSize=26;fillColor=none;horizontalStack=0;resizeParent=1;resizeParentMax=0;resizeLast=0;collapsible=1;marginBottom=0;whiteSpace=wrap;html=1;" parent="1" vertex="1">
          <mxGeometry x="-70" y="2400" width="140" height="78" as="geometry" />
        </mxCell>
        <mxCell id="mzSfsBMmuloAMj2JJf1q-75" value="+ id: integer" style="text;strokeColor=none;fillColor=none;align=left;verticalAlign=top;spacingLeft=4;spacingRight=4;overflow=hidden;rotatable=0;points=[[0,0.5],[1,0.5]];portConstraint=eastwest;whiteSpace=wrap;html=1;" parent="mzSfsBMmuloAMj2JJf1q-74" vertex="1">
          <mxGeometry y="26" width="140" height="26" as="geometry" />
        </mxCell>
        <mxCell id="mzSfsBMmuloAMj2JJf1q-77" value="+ adi: string" style="text;strokeColor=none;fillColor=none;align=left;verticalAlign=top;spacingLeft=4;spacingRight=4;overflow=hidden;rotatable=0;points=[[0,0.5],[1,0.5]];portConstraint=eastwest;whiteSpace=wrap;html=1;" parent="mzSfsBMmuloAMj2JJf1q-74" vertex="1">
          <mxGeometry y="52" width="140" height="26" as="geometry" />
        </mxCell>
        <mxCell id="mzSfsBMmuloAMj2JJf1q-78" value="Calısan" style="swimlane;fontStyle=0;childLayout=stackLayout;horizontal=1;startSize=26;fillColor=none;horizontalStack=0;resizeParent=1;resizeParentMax=0;resizeLast=0;collapsible=1;marginBottom=0;whiteSpace=wrap;html=1;" parent="1" vertex="1">
          <mxGeometry x="-70" y="2160" width="140" height="78" as="geometry" />
        </mxCell>
        <mxCell id="mzSfsBMmuloAMj2JJf1q-79" value="+ id: integer" style="text;strokeColor=none;fillColor=none;align=left;verticalAlign=top;spacingLeft=4;spacingRight=4;overflow=hidden;rotatable=0;points=[[0,0.5],[1,0.5]];portConstraint=eastwest;whiteSpace=wrap;html=1;" parent="mzSfsBMmuloAMj2JJf1q-78" vertex="1">
          <mxGeometry y="26" width="140" height="26" as="geometry" />
        </mxCell>
        <mxCell id="mzSfsBMmuloAMj2JJf1q-80" value="+ adi: string" style="text;strokeColor=none;fillColor=none;align=left;verticalAlign=top;spacingLeft=4;spacingRight=4;overflow=hidden;rotatable=0;points=[[0,0.5],[1,0.5]];portConstraint=eastwest;whiteSpace=wrap;html=1;" parent="mzSfsBMmuloAMj2JJf1q-78" vertex="1">
          <mxGeometry y="52" width="140" height="26" as="geometry" />
        </mxCell>
        <mxCell id="mzSfsBMmuloAMj2JJf1q-96" value="" style="endArrow=none;html=1;rounded=0;exitX=0.979;exitY=-0.192;exitDx=0;exitDy=0;exitPerimeter=0;entryX=0;entryY=0.25;entryDx=0;entryDy=0;" parent="1" source="mzSfsBMmuloAMj2JJf1q-19" target="mzSfsBMmuloAMj2JJf1q-116" edge="1">
          <mxGeometry width="50" height="50" relative="1" as="geometry">
            <mxPoint x="480" y="1780" as="sourcePoint" />
            <mxPoint x="530" y="1730" as="targetPoint" />
          </mxGeometry>
        </mxCell>
        <mxCell id="mzSfsBMmuloAMj2JJf1q-97" value="" style="endArrow=none;html=1;rounded=0;exitX=1;exitY=0.5;exitDx=0;exitDy=0;entryX=0.036;entryY=-0.038;entryDx=0;entryDy=0;entryPerimeter=0;" parent="1" source="mzSfsBMmuloAMj2JJf1q-55" target="mzSfsBMmuloAMj2JJf1q-79" edge="1">
          <mxGeometry width="50" height="50" relative="1" as="geometry">
            <mxPoint x="480" y="1780" as="sourcePoint" />
            <mxPoint x="530" y="1730" as="targetPoint" />
          </mxGeometry>
        </mxCell>
        <mxCell id="mzSfsBMmuloAMj2JJf1q-98" value="" style="endArrow=none;html=1;rounded=0;exitX=1;exitY=0.5;exitDx=0;exitDy=0;entryX=0;entryY=0.25;entryDx=0;entryDy=0;" parent="1" source="mzSfsBMmuloAMj2JJf1q-59" target="mzSfsBMmuloAMj2JJf1q-78" edge="1">
          <mxGeometry width="50" height="50" relative="1" as="geometry">
            <mxPoint x="480" y="1780" as="sourcePoint" />
            <mxPoint x="530" y="1730" as="targetPoint" />
          </mxGeometry>
        </mxCell>
        <mxCell id="mzSfsBMmuloAMj2JJf1q-99" value="" style="endArrow=none;html=1;rounded=0;entryX=0;entryY=0.25;entryDx=0;entryDy=0;exitX=1;exitY=0.5;exitDx=0;exitDy=0;" parent="1" source="mzSfsBMmuloAMj2JJf1q-63" target="mzSfsBMmuloAMj2JJf1q-78" edge="1">
          <mxGeometry width="50" height="50" relative="1" as="geometry">
            <mxPoint x="-210" y="2150" as="sourcePoint" />
            <mxPoint x="-80" y="2180" as="targetPoint" />
          </mxGeometry>
        </mxCell>
        <mxCell id="mzSfsBMmuloAMj2JJf1q-100" value="" style="endArrow=none;html=1;rounded=0;exitX=1;exitY=0.5;exitDx=0;exitDy=0;entryX=0;entryY=0.5;entryDx=0;entryDy=0;" parent="1" source="mzSfsBMmuloAMj2JJf1q-11" edge="1">
          <mxGeometry width="50" height="50" relative="1" as="geometry">
            <mxPoint x="480" y="1780" as="sourcePoint" />
            <mxPoint x="510" y="2498.999999999999" as="targetPoint" />
          </mxGeometry>
        </mxCell>
        <mxCell id="mzSfsBMmuloAMj2JJf1q-101" value="" style="endArrow=none;html=1;rounded=0;exitX=1;exitY=0.5;exitDx=0;exitDy=0;entryX=0;entryY=0.5;entryDx=0;entryDy=0;" parent="1" source="mzSfsBMmuloAMj2JJf1q-71" target="mzSfsBMmuloAMj2JJf1q-11" edge="1">
          <mxGeometry width="50" height="50" relative="1" as="geometry">
            <mxPoint x="480" y="1780" as="sourcePoint" />
            <mxPoint x="530" y="1730" as="targetPoint" />
          </mxGeometry>
        </mxCell>
        <mxCell id="mzSfsBMmuloAMj2JJf1q-102" value="" style="endArrow=none;html=1;rounded=0;exitX=0.491;exitY=1.123;exitDx=0;exitDy=0;exitPerimeter=0;entryX=0.5;entryY=0;entryDx=0;entryDy=0;" parent="1" source="mzSfsBMmuloAMj2JJf1q-77" target="mzSfsBMmuloAMj2JJf1q-70" edge="1">
          <mxGeometry width="50" height="50" relative="1" as="geometry">
            <mxPoint x="455" y="1800" as="sourcePoint" />
            <mxPoint x="505" y="1750" as="targetPoint" />
          </mxGeometry>
        </mxCell>
        <mxCell id="mzSfsBMmuloAMj2JJf1q-103" value="" style="endArrow=none;html=1;rounded=0;exitX=1;exitY=0.5;exitDx=0;exitDy=0;entryX=0;entryY=0.5;entryDx=0;entryDy=0;" parent="1" source="mzSfsBMmuloAMj2JJf1q-75" target="mzSfsBMmuloAMj2JJf1q-19" edge="1">
          <mxGeometry width="50" height="50" relative="1" as="geometry">
            <mxPoint x="480" y="1780" as="sourcePoint" />
            <mxPoint x="530" y="1730" as="targetPoint" />
          </mxGeometry>
        </mxCell>
        <mxCell id="mzSfsBMmuloAMj2JJf1q-104" value="" style="endArrow=none;html=1;rounded=0;exitX=1;exitY=0.5;exitDx=0;exitDy=0;entryX=0;entryY=0.5;entryDx=0;entryDy=0;" parent="1" source="mzSfsBMmuloAMj2JJf1q-79" target="mzSfsBMmuloAMj2JJf1q-19" edge="1">
          <mxGeometry width="50" height="50" relative="1" as="geometry">
            <mxPoint x="480" y="1780" as="sourcePoint" />
            <mxPoint x="530" y="1730" as="targetPoint" />
          </mxGeometry>
        </mxCell>
        <mxCell id="mzSfsBMmuloAMj2JJf1q-105" value="" style="endArrow=none;html=1;rounded=0;exitX=1.003;exitY=-0.104;exitDx=0;exitDy=0;exitPerimeter=0;entryX=0;entryY=0.5;entryDx=0;entryDy=0;" parent="1" source="mzSfsBMmuloAMj2JJf1q-67" target="mzSfsBMmuloAMj2JJf1q-19" edge="1">
          <mxGeometry width="50" height="50" relative="1" as="geometry">
            <mxPoint x="480" y="1780" as="sourcePoint" />
            <mxPoint x="530" y="1730" as="targetPoint" />
          </mxGeometry>
        </mxCell>
        <mxCell id="mzSfsBMmuloAMj2JJf1q-106" value="" style="endArrow=none;html=1;rounded=0;exitX=0.5;exitY=0;exitDx=0;exitDy=0;entryX=0.588;entryY=1.017;entryDx=0;entryDy=0;entryPerimeter=0;" parent="1" source="mzSfsBMmuloAMj2JJf1q-18" target="mzSfsBMmuloAMj2JJf1q-7" edge="1">
          <mxGeometry width="50" height="50" relative="1" as="geometry">
            <mxPoint x="480" y="1780" as="sourcePoint" />
            <mxPoint x="269.15999999999985" y="1910.3959999999997" as="targetPoint" />
          </mxGeometry>
        </mxCell>
        <mxCell id="mzSfsBMmuloAMj2JJf1q-107" value="" style="endArrow=none;html=1;rounded=0;exitX=0.5;exitY=0;exitDx=0;exitDy=0;entryX=1;entryY=0.5;entryDx=0;entryDy=0;" parent="1" source="mzSfsBMmuloAMj2JJf1q-22" target="mzSfsBMmuloAMj2JJf1q-47" edge="1">
          <mxGeometry width="50" height="50" relative="1" as="geometry">
            <mxPoint x="390" y="1846" as="sourcePoint" />
            <mxPoint x="704.06" y="1930.004" as="targetPoint" />
          </mxGeometry>
        </mxCell>
        <mxCell id="mzSfsBMmuloAMj2JJf1q-108" value="" style="endArrow=none;html=1;rounded=0;entryX=0;entryY=0.25;entryDx=0;entryDy=0;exitX=1;exitY=0.5;exitDx=0;exitDy=0;" parent="1" source="mzSfsBMmuloAMj2JJf1q-47" target="mzSfsBMmuloAMj2JJf1q-26" edge="1">
          <mxGeometry width="50" height="50" relative="1" as="geometry">
            <mxPoint x="705.6000000000004" y="1931.5900000000001" as="sourcePoint" />
            <mxPoint x="440" y="1796" as="targetPoint" />
          </mxGeometry>
        </mxCell>
        <mxCell id="mzSfsBMmuloAMj2JJf1q-109" value="" style="endArrow=none;html=1;rounded=0;entryX=0;entryY=0.25;entryDx=0;entryDy=0;exitX=1;exitY=0.5;exitDx=0;exitDy=0;" parent="1" source="mzSfsBMmuloAMj2JJf1q-47" target="mzSfsBMmuloAMj2JJf1q-34" edge="1">
          <mxGeometry width="50" height="50" relative="1" as="geometry">
            <mxPoint x="770" y="1861" as="sourcePoint" />
            <mxPoint x="440" y="1796" as="targetPoint" />
          </mxGeometry>
        </mxCell>
        <mxCell id="mzSfsBMmuloAMj2JJf1q-110" value="" style="endArrow=none;html=1;rounded=0;entryX=-0.023;entryY=0.062;entryDx=0;entryDy=0;entryPerimeter=0;exitX=1;exitY=0.5;exitDx=0;exitDy=0;" parent="1" source="mzSfsBMmuloAMj2JJf1q-47" target="mzSfsBMmuloAMj2JJf1q-31" edge="1">
          <mxGeometry width="50" height="50" relative="1" as="geometry">
            <mxPoint x="768.04" y="1845.1919999999996" as="sourcePoint" />
            <mxPoint x="440" y="1796" as="targetPoint" />
          </mxGeometry>
        </mxCell>
        <mxCell id="mzSfsBMmuloAMj2JJf1q-111" value="" style="endArrow=none;html=1;rounded=0;exitX=0.471;exitY=0.938;exitDx=0;exitDy=0;exitPerimeter=0;entryX=1;entryY=0.5;entryDx=0;entryDy=0;" parent="1" source="mzSfsBMmuloAMj2JJf1q-45" target="mzSfsBMmuloAMj2JJf1q-47" edge="1">
          <mxGeometry width="50" height="50" relative="1" as="geometry">
            <mxPoint x="390" y="1846" as="sourcePoint" />
            <mxPoint x="700" y="1822" as="targetPoint" />
          </mxGeometry>
        </mxCell>
        <mxCell id="mzSfsBMmuloAMj2JJf1q-113" value="" style="endArrow=none;html=1;rounded=0;exitX=0.984;exitY=0.022;exitDx=0;exitDy=0;entryX=0;entryY=0.25;entryDx=0;entryDy=0;exitPerimeter=0;" parent="1" source="mzSfsBMmuloAMj2JJf1q-51" target="mzSfsBMmuloAMj2JJf1q-46" edge="1">
          <mxGeometry width="50" height="50" relative="1" as="geometry">
            <mxPoint x="480" y="1780" as="sourcePoint" />
            <mxPoint x="530" y="1730" as="targetPoint" />
          </mxGeometry>
        </mxCell>
        <mxCell id="mzSfsBMmuloAMj2JJf1q-114" value="" style="endArrow=none;html=1;rounded=0;exitX=1.029;exitY=-0.077;exitDx=0;exitDy=0;exitPerimeter=0;entryX=-0.009;entryY=-0.077;entryDx=0;entryDy=0;entryPerimeter=0;" parent="1" source="mzSfsBMmuloAMj2JJf1q-6" target="mzSfsBMmuloAMj2JJf1q-51" edge="1">
          <mxGeometry width="50" height="50" relative="1" as="geometry">
            <mxPoint x="140" y="1750" as="sourcePoint" />
            <mxPoint x="190" y="1700" as="targetPoint" />
          </mxGeometry>
        </mxCell>
        <mxCell id="mzSfsBMmuloAMj2JJf1q-116" value="Teslimat" style="swimlane;fontStyle=0;childLayout=stackLayout;horizontal=1;startSize=26;fillColor=none;horizontalStack=0;resizeParent=1;resizeParentMax=0;resizeLast=0;collapsible=1;marginBottom=0;whiteSpace=wrap;html=1;" parent="1" vertex="1">
          <mxGeometry x="430" y="2020" width="140" height="52" as="geometry" />
        </mxCell>
        <mxCell id="mzSfsBMmuloAMj2JJf1q-117" value="+ id: integer" style="text;strokeColor=none;fillColor=none;align=left;verticalAlign=top;spacingLeft=4;spacingRight=4;overflow=hidden;rotatable=0;points=[[0,0.5],[1,0.5]];portConstraint=eastwest;whiteSpace=wrap;html=1;" parent="mzSfsBMmuloAMj2JJf1q-116" vertex="1">
          <mxGeometry y="26" width="140" height="26" as="geometry" />
        </mxCell>
        <mxCell id="mFs4ngc85-u2YBcvQ6tv-5" value="userName" style="ellipse;whiteSpace=wrap;html=1;" parent="1" vertex="1">
          <mxGeometry x="-160" y="255" width="100" height="40" as="geometry" />
        </mxCell>
        <mxCell id="mFs4ngc85-u2YBcvQ6tv-28" value="userName" style="ellipse;whiteSpace=wrap;html=1;" parent="1" vertex="1">
          <mxGeometry x="445" y="65" width="95" height="40" as="geometry" />
        </mxCell>
        <mxCell id="mFs4ngc85-u2YBcvQ6tv-29" value="password" style="ellipse;whiteSpace=wrap;html=1;" parent="1" vertex="1">
          <mxGeometry x="560" y="65" width="90" height="50" as="geometry" />
        </mxCell>
        <mxCell id="mFs4ngc85-u2YBcvQ6tv-30" value="password" style="ellipse;whiteSpace=wrap;html=1;" parent="1" vertex="1">
          <mxGeometry x="-310" y="180" width="90" height="40" as="geometry" />
        </mxCell>
        <mxCell id="mFs4ngc85-u2YBcvQ6tv-65" value="calisanID (FK))" style="ellipse;whiteSpace=wrap;html=1;" parent="1" vertex="1">
          <mxGeometry x="-520" y="1010" width="90" height="35" as="geometry" />
        </mxCell>
        <mxCell id="mFs4ngc85-u2YBcvQ6tv-66" value="calismaSaatleri" style="ellipse;whiteSpace=wrap;html=1;" parent="1" vertex="1">
          <mxGeometry x="-650" y="1005" width="90" height="35" as="geometry" />
        </mxCell>
        <mxCell id="mFs4ngc85-u2YBcvQ6tv-67" value="numara" style="ellipse;whiteSpace=wrap;html=1;" parent="1" vertex="1">
          <mxGeometry x="-120" y="360" width="90" height="35" as="geometry" />
        </mxCell>
        <mxCell id="mFs4ngc85-u2YBcvQ6tv-68" value="kapasite" style="ellipse;whiteSpace=wrap;html=1;" parent="1" vertex="1">
          <mxGeometry x="-225" y="392.5" width="90" height="35" as="geometry" />
        </mxCell>
        <mxCell id="mFs4ngc85-u2YBcvQ6tv-83" value="name" style="ellipse;whiteSpace=wrap;html=1;" parent="1" vertex="1">
          <mxGeometry x="630" y="680" width="90" height="35" as="geometry" />
        </mxCell>
        <mxCell id="mFs4ngc85-u2YBcvQ6tv-84" value="phone" style="ellipse;whiteSpace=wrap;html=1;" parent="1" vertex="1">
          <mxGeometry x="910" y="430" width="90" height="35" as="geometry" />
        </mxCell>
        <mxCell id="mFs4ngc85-u2YBcvQ6tv-85" value="userID (FK)" style="ellipse;whiteSpace=wrap;html=1;" parent="1" vertex="1">
          <mxGeometry x="810" y="430" width="90" height="35" as="geometry" />
        </mxCell>
        <mxCell id="mFs4ngc85-u2YBcvQ6tv-86" value="yorum" style="ellipse;whiteSpace=wrap;html=1;" parent="1" vertex="1">
          <mxGeometry x="1330" y="750" width="90" height="35" as="geometry" />
        </mxCell>
        <mxCell id="mFs4ngc85-u2YBcvQ6tv-87" value="amount" style="ellipse;whiteSpace=wrap;html=1;" parent="1" vertex="1">
          <mxGeometry x="1610" y="597.5" width="90" height="35" as="geometry" />
        </mxCell>
        <mxCell id="mFs4ngc85-u2YBcvQ6tv-88" value="tarih" style="ellipse;whiteSpace=wrap;html=1;" parent="1" vertex="1">
          <mxGeometry x="1625" y="535" width="90" height="35" as="geometry" />
        </mxCell>
        <mxCell id="mFs4ngc85-u2YBcvQ6tv-89" value="amount" style="ellipse;whiteSpace=wrap;html=1;" parent="1" vertex="1">
          <mxGeometry x="1330" y="385" width="90" height="35" as="geometry" />
        </mxCell>
        <mxCell id="mFs4ngc85-u2YBcvQ6tv-90" value="tarih" style="ellipse;whiteSpace=wrap;html=1;" parent="1" vertex="1">
          <mxGeometry x="1470" y="385" width="90" height="35" as="geometry" />
        </mxCell>
        <mxCell id="mFs4ngc85-u2YBcvQ6tv-91" value="masaID (FK)" style="ellipse;whiteSpace=wrap;html=1;" parent="1" vertex="1">
          <mxGeometry x="1590" y="217.5" width="90" height="35" as="geometry" />
        </mxCell>
        <mxCell id="mFs4ngc85-u2YBcvQ6tv-92" value="userID (FK)" style="ellipse;whiteSpace=wrap;html=1;" parent="1" vertex="1">
          <mxGeometry x="1675" y="182.5" width="90" height="35" as="geometry" />
        </mxCell>
        <mxCell id="mFs4ngc85-u2YBcvQ6tv-93" value="tarih" style="ellipse;whiteSpace=wrap;html=1;" parent="1" vertex="1">
          <mxGeometry x="1680" y="125" width="90" height="35" as="geometry" />
        </mxCell>
        <mxCell id="mFs4ngc85-u2YBcvQ6tv-94" value="gecerlilikTarihi" style="ellipse;whiteSpace=wrap;html=1;" parent="1" vertex="1">
          <mxGeometry x="1585" y="-15" width="90" height="35" as="geometry" />
        </mxCell>
        <mxCell id="mFs4ngc85-u2YBcvQ6tv-95" value="amount" style="ellipse;whiteSpace=wrap;html=1;" parent="1" vertex="1">
          <mxGeometry x="1585" y="-100" width="90" height="35" as="geometry" />
        </mxCell>
        <mxCell id="mFs4ngc85-u2YBcvQ6tv-96" value="password" style="ellipse;whiteSpace=wrap;html=1;" parent="1" vertex="1">
          <mxGeometry x="1180" y="35" width="90" height="35" as="geometry" />
        </mxCell>
        <mxCell id="mFs4ngc85-u2YBcvQ6tv-97" value="adresess" style="ellipse;whiteSpace=wrap;html=1;" parent="1" vertex="1">
          <mxGeometry x="1070" y="30" width="90" height="35" as="geometry" />
        </mxCell>
        <mxCell id="mFs4ngc85-u2YBcvQ6tv-98" value="userName" style="ellipse;whiteSpace=wrap;html=1;" parent="1" vertex="1">
          <mxGeometry x="960" y="27.5" width="90" height="35" as="geometry" />
        </mxCell>
        <mxCell id="mFs4ngc85-u2YBcvQ6tv-100" value="userID (FK)" style="ellipse;whiteSpace=wrap;html=1;" parent="1" vertex="1">
          <mxGeometry x="1190" y="755" width="90" height="35" as="geometry" />
        </mxCell>
        <mxCell id="mFs4ngc85-u2YBcvQ6tv-101" value="" style="endArrow=none;html=1;rounded=0;entryX=1;entryY=0.5;entryDx=0;entryDy=0;exitX=0;exitY=0.5;exitDx=0;exitDy=0;" parent="1" source="rj0RwfOlwYhKOknB0tcM-1" target="mFs4ngc85-u2YBcvQ6tv-30" edge="1">
          <mxGeometry width="50" height="50" relative="1" as="geometry">
            <mxPoint x="490" y="170" as="sourcePoint" />
            <mxPoint x="500" y="115" as="targetPoint" />
          </mxGeometry>
        </mxCell>
        <mxCell id="mFs4ngc85-u2YBcvQ6tv-102" value="" style="endArrow=none;html=1;rounded=0;entryX=0.233;entryY=0.922;entryDx=0;entryDy=0;exitX=0.75;exitY=0;exitDx=0;exitDy=0;entryPerimeter=0;" parent="1" source="rj0RwfOlwYhKOknB0tcM-15" target="mFs4ngc85-u2YBcvQ6tv-29" edge="1">
          <mxGeometry width="50" height="50" relative="1" as="geometry">
            <mxPoint x="500" y="180" as="sourcePoint" />
            <mxPoint x="510" y="125" as="targetPoint" />
          </mxGeometry>
        </mxCell>
        <mxCell id="mFs4ngc85-u2YBcvQ6tv-103" value="" style="endArrow=none;html=1;rounded=0;entryX=0.5;entryY=0;entryDx=0;entryDy=0;exitX=0.5;exitY=1;exitDx=0;exitDy=0;" parent="1" source="rj0RwfOlwYhKOknB0tcM-1" target="mFs4ngc85-u2YBcvQ6tv-5" edge="1">
          <mxGeometry width="50" height="50" relative="1" as="geometry">
            <mxPoint x="-150" y="200" as="sourcePoint" />
            <mxPoint x="-210" y="210" as="targetPoint" />
          </mxGeometry>
        </mxCell>
        <mxCell id="mFs4ngc85-u2YBcvQ6tv-105" value="" style="endArrow=none;html=1;rounded=0;entryX=0.89;entryY=1.037;entryDx=0;entryDy=0;exitX=0.325;exitY=0.057;exitDx=0;exitDy=0;entryPerimeter=0;exitPerimeter=0;" parent="1" source="mFs4ngc85-u2YBcvQ6tv-84" target="rj0RwfOlwYhKOknB0tcM-19" edge="1">
          <mxGeometry width="50" height="50" relative="1" as="geometry">
            <mxPoint x="880" y="445" as="sourcePoint" />
            <mxPoint x="810" y="390" as="targetPoint" />
          </mxGeometry>
        </mxCell>
        <mxCell id="mFs4ngc85-u2YBcvQ6tv-106" value="adresess" style="ellipse;whiteSpace=wrap;html=1;" parent="1" vertex="1">
          <mxGeometry x="640" y="755" width="90" height="35" as="geometry" />
        </mxCell>
        <mxCell id="mFs4ngc85-u2YBcvQ6tv-108" value="name" style="ellipse;whiteSpace=wrap;html=1;" parent="1" vertex="1">
          <mxGeometry x="475" y="1095" width="90" height="35" as="geometry" />
        </mxCell>
        <mxCell id="mFs4ngc85-u2YBcvQ6tv-109" value="phone" style="ellipse;whiteSpace=wrap;html=1;" parent="1" vertex="1">
          <mxGeometry x="590" y="1065" width="90" height="35" as="geometry" />
        </mxCell>
        <mxCell id="mFs4ngc85-u2YBcvQ6tv-110" value="miktar" style="ellipse;whiteSpace=wrap;html=1;" parent="1" vertex="1">
          <mxGeometry x="430" y="1365" width="90" height="35" as="geometry" />
        </mxCell>
        <mxCell id="mFs4ngc85-u2YBcvQ6tv-111" value="" style="endArrow=none;html=1;rounded=0;exitX=0.5;exitY=1;exitDx=0;exitDy=0;entryX=0.5;entryY=0;entryDx=0;entryDy=0;" parent="1" source="rj0RwfOlwYhKOknB0tcM-17" target="mFs4ngc85-u2YBcvQ6tv-110" edge="1">
          <mxGeometry width="50" height="50" relative="1" as="geometry">
            <mxPoint x="490" y="1280" as="sourcePoint" />
            <mxPoint x="340" y="1370" as="targetPoint" />
          </mxGeometry>
        </mxCell>
        <mxCell id="mFs4ngc85-u2YBcvQ6tv-114" value="urunCesidi (FK)" style="ellipse;whiteSpace=wrap;html=1;" parent="1" vertex="1">
          <mxGeometry x="565" y="1362.5" width="90" height="35" as="geometry" />
        </mxCell>
        <mxCell id="mFs4ngc85-u2YBcvQ6tv-115" value="" style="endArrow=none;html=1;rounded=0;exitX=0.5;exitY=1;exitDx=0;exitDy=0;entryX=0;entryY=0;entryDx=0;entryDy=0;" parent="1" source="rj0RwfOlwYhKOknB0tcM-17" target="mFs4ngc85-u2YBcvQ6tv-114" edge="1">
          <mxGeometry width="50" height="50" relative="1" as="geometry">
            <mxPoint x="490" y="1280" as="sourcePoint" />
            <mxPoint x="485" y="1375" as="targetPoint" />
          </mxGeometry>
        </mxCell>
        <mxCell id="mFs4ngc85-u2YBcvQ6tv-117" value="name" style="ellipse;whiteSpace=wrap;html=1;" parent="1" vertex="1">
          <mxGeometry x="80" y="940" width="90" height="35" as="geometry" />
        </mxCell>
        <mxCell id="mFs4ngc85-u2YBcvQ6tv-118" value="name" style="ellipse;whiteSpace=wrap;html=1;" parent="1" vertex="1">
          <mxGeometry x="20" y="587.5" width="90" height="35" as="geometry" />
        </mxCell>
        <mxCell id="mFs4ngc85-u2YBcvQ6tv-119" value="" style="endArrow=none;html=1;rounded=0;exitX=0.984;exitY=0.677;exitDx=0;exitDy=0;entryX=0;entryY=0.5;entryDx=0;entryDy=0;exitPerimeter=0;" parent="1" source="mFs4ngc85-u2YBcvQ6tv-68" target="rj0RwfOlwYhKOknB0tcM-28" edge="1">
          <mxGeometry width="50" height="50" relative="1" as="geometry">
            <mxPoint x="-135" y="426.99" as="sourcePoint" />
            <mxPoint x="-85" y="426.99" as="targetPoint" />
          </mxGeometry>
        </mxCell>
        <mxCell id="mFs4ngc85-u2YBcvQ6tv-120" value="" style="endArrow=none;html=1;rounded=0;exitX=0.593;exitY=0.961;exitDx=0;exitDy=0;entryX=0.381;entryY=0.025;entryDx=0;entryDy=0;exitPerimeter=0;entryPerimeter=0;" parent="1" source="mFs4ngc85-u2YBcvQ6tv-67" target="rj0RwfOlwYhKOknB0tcM-28" edge="1">
          <mxGeometry width="50" height="50" relative="1" as="geometry">
            <mxPoint x="-110" y="500" as="sourcePoint" />
            <mxPoint x="-60" y="500" as="targetPoint" />
          </mxGeometry>
        </mxCell>
        <mxCell id="mFs4ngc85-u2YBcvQ6tv-124" value="name" style="ellipse;whiteSpace=wrap;html=1;" parent="1" vertex="1">
          <mxGeometry x="-670" y="665" width="90" height="35" as="geometry" />
        </mxCell>
        <mxCell id="mFs4ngc85-u2YBcvQ6tv-126" value="adresess" style="ellipse;whiteSpace=wrap;html=1;" parent="1" vertex="1">
          <mxGeometry x="245" y="252.5" width="90" height="35" as="geometry" />
        </mxCell>
        <mxCell id="mFs4ngc85-u2YBcvQ6tv-127" value="" style="endArrow=none;html=1;rounded=0;exitX=0;exitY=0.5;exitDx=0;exitDy=0;entryX=1;entryY=0.25;entryDx=0;entryDy=0;" parent="1" source="mFs4ngc85-u2YBcvQ6tv-132" target="rj0RwfOlwYhKOknB0tcM-26" edge="1">
          <mxGeometry width="50" height="50" relative="1" as="geometry">
            <mxPoint x="300" y="298" as="sourcePoint" />
            <mxPoint x="300" y="360" as="targetPoint" />
          </mxGeometry>
        </mxCell>
        <mxCell id="mFs4ngc85-u2YBcvQ6tv-128" value="" style="endArrow=none;html=1;rounded=0;exitX=0;exitY=1;exitDx=0;exitDy=0;entryX=0.75;entryY=0;entryDx=0;entryDy=0;" parent="1" source="mFs4ngc85-u2YBcvQ6tv-130" target="rj0RwfOlwYhKOknB0tcM-26" edge="1">
          <mxGeometry width="50" height="50" relative="1" as="geometry">
            <mxPoint x="310" y="308" as="sourcePoint" />
            <mxPoint x="310" y="370" as="targetPoint" />
          </mxGeometry>
        </mxCell>
        <mxCell id="mFs4ngc85-u2YBcvQ6tv-129" value="" style="endArrow=none;html=1;rounded=0;exitX=1;exitY=1;exitDx=0;exitDy=0;entryX=0.009;entryY=0.128;entryDx=0;entryDy=0;entryPerimeter=0;" parent="1" source="rj0RwfOlwYhKOknB0tcM-247" target="rj0RwfOlwYhKOknB0tcM-26" edge="1">
          <mxGeometry width="50" height="50" relative="1" as="geometry">
            <mxPoint x="320" y="318" as="sourcePoint" />
            <mxPoint x="320" y="380" as="targetPoint" />
          </mxGeometry>
        </mxCell>
        <mxCell id="mFs4ngc85-u2YBcvQ6tv-130" value="urunIcerigi" style="ellipse;whiteSpace=wrap;html=1;" parent="1" vertex="1">
          <mxGeometry x="350" y="260" width="90" height="50" as="geometry" />
        </mxCell>
        <mxCell id="mFs4ngc85-u2YBcvQ6tv-132" value="durumu" style="ellipse;whiteSpace=wrap;html=1;" parent="1" vertex="1">
          <mxGeometry x="380" y="320" width="90" height="50" as="geometry" />
        </mxCell>
        <mxCell id="mFs4ngc85-u2YBcvQ6tv-133" value="" style="rounded=1;whiteSpace=wrap;html=1;" parent="1" vertex="1">
          <mxGeometry x="30" y="1055" width="120" height="60" as="geometry" />
        </mxCell>
        <mxCell id="mFs4ngc85-u2YBcvQ6tv-134" value="" style="rounded=1;whiteSpace=wrap;html=1;" parent="1" vertex="1">
          <mxGeometry x="-120" y="1052.5" width="120" height="60" as="geometry" />
        </mxCell>
        <mxCell id="mFs4ngc85-u2YBcvQ6tv-139" value="Tatlı" style="text;html=1;align=center;verticalAlign=middle;whiteSpace=wrap;rounded=0;" parent="1" vertex="1">
          <mxGeometry x="-240" y="1070" width="60" height="30" as="geometry" />
        </mxCell>
        <mxCell id="mFs4ngc85-u2YBcvQ6tv-140" value="Icecek" style="text;html=1;align=center;verticalAlign=middle;whiteSpace=wrap;rounded=0;" parent="1" vertex="1">
          <mxGeometry x="60" y="1070" width="60" height="30" as="geometry" />
        </mxCell>
        <mxCell id="mFs4ngc85-u2YBcvQ6tv-142" value="Yemek" style="text;html=1;align=center;verticalAlign=middle;whiteSpace=wrap;rounded=0;" parent="1" vertex="1">
          <mxGeometry x="-90" y="1067.5" width="60" height="30" as="geometry" />
        </mxCell>
        <mxCell id="mFs4ngc85-u2YBcvQ6tv-149" value="" style="endArrow=none;html=1;rounded=0;entryX=0.621;entryY=1.01;entryDx=0;entryDy=0;entryPerimeter=0;" parent="1" target="mFs4ngc85-u2YBcvQ6tv-133" edge="1">
          <mxGeometry width="50" height="50" relative="1" as="geometry">
            <mxPoint x="120" y="1150" as="sourcePoint" />
            <mxPoint x="-10" y="970" as="targetPoint" />
          </mxGeometry>
        </mxCell>
        <mxCell id="mFs4ngc85-u2YBcvQ6tv-150" value="" style="endArrow=none;html=1;rounded=0;entryX=0.634;entryY=0.988;entryDx=0;entryDy=0;entryPerimeter=0;" parent="1" target="mFs4ngc85-u2YBcvQ6tv-134" edge="1">
          <mxGeometry width="50" height="50" relative="1" as="geometry">
            <mxPoint x="-20" y="1160" as="sourcePoint" />
            <mxPoint x="-10" y="970" as="targetPoint" />
          </mxGeometry>
        </mxCell>
        <mxCell id="mFs4ngc85-u2YBcvQ6tv-151" value="" style="endArrow=none;html=1;rounded=0;entryX=0.5;entryY=1;entryDx=0;entryDy=0;" parent="1" target="mFs4ngc85-u2YBcvQ6tv-143" edge="1">
          <mxGeometry width="50" height="50" relative="1" as="geometry">
            <mxPoint x="-170" y="1150" as="sourcePoint" />
            <mxPoint x="-10" y="970" as="targetPoint" />
          </mxGeometry>
        </mxCell>
        <mxCell id="mFs4ngc85-u2YBcvQ6tv-152" value="" style="endArrow=none;html=1;rounded=0;entryX=0.25;entryY=1;entryDx=0;entryDy=0;" parent="1" target="mFs4ngc85-u2YBcvQ6tv-133" edge="1">
          <mxGeometry width="50" height="50" relative="1" as="geometry">
            <mxPoint x="40" y="1220" as="sourcePoint" />
            <mxPoint x="80" y="1140" as="targetPoint" />
          </mxGeometry>
        </mxCell>
        <mxCell id="mFs4ngc85-u2YBcvQ6tv-153" value="" style="endArrow=none;html=1;rounded=0;exitX=0.25;exitY=1;exitDx=0;exitDy=0;" parent="1" source="mFs4ngc85-u2YBcvQ6tv-134" edge="1">
          <mxGeometry width="50" height="50" relative="1" as="geometry">
            <mxPoint x="-60" y="1020" as="sourcePoint" />
            <mxPoint x="-130" y="1210" as="targetPoint" />
          </mxGeometry>
        </mxCell>
        <mxCell id="mFs4ngc85-u2YBcvQ6tv-154" value="" style="endArrow=none;html=1;rounded=0;exitX=0.323;exitY=0.998;exitDx=0;exitDy=0;exitPerimeter=0;" parent="1" source="mFs4ngc85-u2YBcvQ6tv-143" edge="1">
          <mxGeometry width="50" height="50" relative="1" as="geometry">
            <mxPoint x="-60" y="1020" as="sourcePoint" />
            <mxPoint x="-250" y="1150" as="targetPoint" />
          </mxGeometry>
        </mxCell>
        <mxCell id="mFs4ngc85-u2YBcvQ6tv-155" value="" style="endArrow=none;html=1;rounded=0;entryX=0.363;entryY=1.049;entryDx=0;entryDy=0;entryPerimeter=0;exitX=0.445;exitY=0.007;exitDx=0;exitDy=0;exitPerimeter=0;" parent="1" source="mFs4ngc85-u2YBcvQ6tv-133" target="rj0RwfOlwYhKOknB0tcM-16" edge="1">
          <mxGeometry width="50" height="50" relative="1" as="geometry">
            <mxPoint x="-60" y="1020" as="sourcePoint" />
            <mxPoint x="-10" y="970" as="targetPoint" />
          </mxGeometry>
        </mxCell>
        <mxCell id="mFs4ngc85-u2YBcvQ6tv-156" value="" style="endArrow=none;html=1;rounded=0;entryX=0.368;entryY=0.996;entryDx=0;entryDy=0;entryPerimeter=0;exitX=0.5;exitY=0;exitDx=0;exitDy=0;" parent="1" target="rj0RwfOlwYhKOknB0tcM-16" edge="1">
          <mxGeometry width="50" height="50" relative="1" as="geometry">
            <mxPoint x="-50" y="960" as="sourcePoint" />
            <mxPoint x="-10" y="970" as="targetPoint" />
          </mxGeometry>
        </mxCell>
        <mxCell id="mFs4ngc85-u2YBcvQ6tv-157" value="" style="endArrow=none;html=1;rounded=0;entryX=0.373;entryY=1.007;entryDx=0;entryDy=0;entryPerimeter=0;exitX=0.5;exitY=0;exitDx=0;exitDy=0;" parent="1" source="mFs4ngc85-u2YBcvQ6tv-143" target="rj0RwfOlwYhKOknB0tcM-16" edge="1">
          <mxGeometry width="50" height="50" relative="1" as="geometry">
            <mxPoint x="-80" y="980" as="sourcePoint" />
            <mxPoint x="-30" y="930" as="targetPoint" />
          </mxGeometry>
        </mxCell>
        <mxCell id="mFs4ngc85-u2YBcvQ6tv-166" value="IcecekCesidi" style="ellipse;whiteSpace=wrap;html=1;" parent="1" vertex="1">
          <mxGeometry x="90" y="1150" width="90" height="35" as="geometry" />
        </mxCell>
        <mxCell id="mFs4ngc85-u2YBcvQ6tv-167" value="yemekCesidi" style="ellipse;whiteSpace=wrap;html=1;" parent="1" vertex="1">
          <mxGeometry x="-50" y="1155" width="90" height="35" as="geometry" />
        </mxCell>
        <mxCell id="mFs4ngc85-u2YBcvQ6tv-168" value="tatlıCesidi" style="ellipse;whiteSpace=wrap;html=1;" parent="1" vertex="1">
          <mxGeometry x="-220" y="1140" width="90" height="35" as="geometry" />
        </mxCell>
        <mxCell id="mFs4ngc85-u2YBcvQ6tv-169" value="id (PK)" style="ellipse;whiteSpace=wrap;html=1;align=center;fontStyle=4;" parent="1" vertex="1">
          <mxGeometry x="-10" y="1215" width="100" height="40" as="geometry" />
        </mxCell>
        <mxCell id="mFs4ngc85-u2YBcvQ6tv-170" value="id (PK)" style="ellipse;whiteSpace=wrap;html=1;align=center;fontStyle=4;" parent="1" vertex="1">
          <mxGeometry x="-180" y="1200" width="100" height="40" as="geometry" />
        </mxCell>
        <mxCell id="mFs4ngc85-u2YBcvQ6tv-171" value="id (PK)" style="ellipse;whiteSpace=wrap;html=1;align=center;fontStyle=4;" parent="1" vertex="1">
          <mxGeometry x="-330" y="1137.5" width="100" height="40" as="geometry" />
        </mxCell>
        <mxCell id="mFs4ngc85-u2YBcvQ6tv-172" value="*" style="text;html=1;align=center;verticalAlign=middle;whiteSpace=wrap;rounded=0;" parent="1" vertex="1">
          <mxGeometry x="-40" y="920" width="60" height="30" as="geometry" />
        </mxCell>
        <mxCell id="mFs4ngc85-u2YBcvQ6tv-173" value="*" style="text;html=1;align=center;verticalAlign=middle;whiteSpace=wrap;rounded=0;" parent="1" vertex="1">
          <mxGeometry x="70" y="1035" width="60" height="30" as="geometry" />
        </mxCell>
        <mxCell id="mFs4ngc85-u2YBcvQ6tv-174" value="*" style="text;html=1;align=center;verticalAlign=middle;whiteSpace=wrap;rounded=0;" parent="1" vertex="1">
          <mxGeometry x="-70" y="1035" width="60" height="30" as="geometry" />
        </mxCell>
        <mxCell id="mFs4ngc85-u2YBcvQ6tv-175" value="*" style="text;html=1;align=center;verticalAlign=middle;whiteSpace=wrap;rounded=0;" parent="1" vertex="1">
          <mxGeometry x="-180" y="1022.5" width="60" height="30" as="geometry" />
        </mxCell>
        <mxCell id="mFs4ngc85-u2YBcvQ6tv-177" value="" style="endArrow=none;html=1;rounded=0;exitX=0.5;exitY=0;exitDx=0;exitDy=0;" parent="1" source="mFs4ngc85-u2YBcvQ6tv-134" edge="1">
          <mxGeometry width="50" height="50" relative="1" as="geometry">
            <mxPoint x="-60" y="1053" as="sourcePoint" />
            <mxPoint x="-50" y="960" as="targetPoint" />
          </mxGeometry>
        </mxCell>
      </root>
    </mxGraphModel>
  </diagram>
</mxfile>
